<?xml version="1.0" standalone="no"?>
<!DOCTYPE svg PUBLIC "-//W3C//DTD SVG 20010904//EN"
 "http://www.w3.org/TR/2001/REC-SVG-20010904/DTD/svg10.dtd">
<svg version="1.0" xmlns="http://www.w3.org/2000/svg"
 width="720.000000pt" height="1080.000000pt" viewBox="0 0 720.000000 1080.000000"
 preserveAspectRatio="xMidYMid meet">

<g transform="translate(0.000000,1080.000000) scale(0.100000,-0.100000)"
fill="#000000" stroke="none">
<path d="M5790 10793 c1 -14 27 -43 39 -43 6 0 11 -4 11 -10 0 -5 7 -7 16 -3
8 3 26 0 39 -7 22 -12 28 -10 64 21 22 19 40 37 40 42 1 4 -46 7 -104 7 -58 0
-105 -3 -105 -7z"/>
<path d="M6124 10785 c25 -19 50 -19 66 0 11 13 6 15 -36 15 -45 -1 -48 -2
-30 -15z"/>
<path d="M7180 10736 c-10 -27 -2 -96 11 -96 5 0 9 27 9 60 0 65 -5 74 -20 36z"/>
<path d="M2632 10681 c-17 -55 -15 -61 16 -61 23 1 24 2 10 11 -19 11 -25 59
-8 59 6 0 10 7 10 15 0 29 -17 15 -28 -24z"/>
<path d="M0 8914 l0 -1787 62 6 c71 7 107 -5 123 -41 12 -26 28 -28 50 -5 15
15 46 17 249 18 157 0 248 -3 284 -12 65 -16 95 -16 109 -2 8 8 39 9 100 5 48
-4 113 -7 143 -6 177 6 174 6 206 -18 48 -36 54 -72 55 -347 1 -198 -2 -249
-12 -256 -9 -6 0 -9 26 -8 34 0 43 5 60 32 35 55 107 47 166 -20 16 -19 32
-33 35 -31 7 8 23 198 24 284 0 98 8 124 78 239 87 145 135 185 223 185 38 0
69 11 153 54 139 72 222 91 391 90 125 -1 182 -10 325 -53 l35 -10 -25 21
c-21 17 -22 20 -5 14 18 -5 20 -2 18 47 -2 40 0 46 6 27 5 -14 9 -20 10 -13 2
22 44 53 73 53 28 0 29 -1 27 -47 -2 -51 9 -78 54 -125 15 -16 27 -35 27 -43
0 -8 15 -22 33 -31 76 -39 143 -103 178 -171 25 -48 39 -55 40 -20 0 21 1 21
9 2 7 -18 9 -18 15 -3 8 21 45 19 45 -2 0 -8 3 -25 6 -37 5 -20 2 -23 -20 -23
-15 0 -25 -4 -22 -8 2 -4 0 -14 -5 -22 -7 -12 -10 -11 -15 8 -4 12 -10 22 -15
22 -12 0 8 -54 62 -168 27 -56 58 -135 69 -174 11 -39 25 -83 32 -98 12 -28
13 -28 48 -14 19 7 87 27 150 45 127 35 163 35 300 -1 41 -10 76 -17 79 -15 2
3 -4 7 -13 10 -9 3 -23 7 -31 10 -9 2 -16 18 -17 37 -2 51 -2 53 -21 81 -10
16 -17 46 -17 77 0 43 -3 50 -19 50 -11 0 -21 -5 -23 -11 -2 -6 -24 -13 -49
-16 -33 -4 -48 -1 -58 11 -7 9 -22 16 -32 16 -11 0 -19 7 -19 15 0 14 -28 21
-55 15 -27 -6 -98 2 -111 13 -76 60 -114 124 -85 141 5 3 16 37 26 75 16 67
17 69 53 75 20 3 49 6 65 6 15 0 27 5 27 10 0 6 14 10 31 10 23 0 32 -5 36
-21 3 -11 11 -18 18 -15 7 2 23 -3 36 -12 13 -9 33 -18 44 -19 11 -1 34 -5 52
-9 28 -5 31 -9 23 -30 -7 -17 -6 -22 4 -18 8 3 17 -10 26 -36 10 -29 19 -40
34 -40 19 -1 19 -2 4 -11 -18 -10 -24 -40 -11 -53 4 -4 6 -27 4 -53 -2 -39 0
-45 14 -39 9 3 32 6 51 6 24 0 34 5 34 15 0 17 10 18 139 5 52 -5 97 -12 100
-17 10 -13 49 -33 66 -33 8 0 15 -4 15 -9 0 -10 56 -26 80 -23 8 2 35 -15 58
-37 71 -64 91 -118 66 -180 -8 -22 -22 -42 -30 -45 -8 -3 -14 -12 -14 -20 0
-16 -25 -24 -90 -32 -25 -2 -57 -7 -72 -9 -27 -4 -38 8 -18 20 5 3 -12 28 -38
56 -50 53 -75 58 -110 22 -11 -11 -27 -14 -56 -10 l-41 5 45 -20 c180 -81 187
-86 282 -177 53 -50 99 -91 102 -91 4 0 -2 10 -14 22 -23 25 -27 46 -5 28 20
-17 20 4 -1 24 -8 9 -10 16 -4 16 6 0 13 -7 16 -15 7 -17 24 -20 24 -5 0 11
20 54 54 115 14 26 16 27 16 8 0 -12 -6 -24 -12 -26 -10 -4 -10 -6 0 -6 7 -1
18 11 24 27 7 15 17 34 24 42 7 8 14 32 17 53 4 33 17 65 17 43 0 -4 16 5 36
20 30 23 37 25 46 13 7 -10 8 -6 4 16 -3 17 -3 24 0 17 5 -10 10 -9 25 4 18
16 19 16 13 1 -8 -21 2 -22 22 -3 8 8 14 34 14 60 0 36 4 48 21 57 12 6 30 9
40 6 14 -4 26 4 41 24 12 16 26 29 32 29 5 0 -2 -13 -17 -28 -15 -15 -27 -32
-27 -38 0 -9 -10 -21 -85 -109 -127 -148 -170 -204 -162 -211 4 -5 71 73 180
211 26 33 59 74 72 90 70 88 85 109 85 119 0 6 -7 2 -15 -8 -19 -25 -24 -19
-30 32 -3 37 0 44 25 62 15 11 35 20 43 20 27 0 47 -12 41 -24 -3 -6 8 4 25
22 17 18 31 37 31 44 0 6 -10 0 -22 -14 -18 -20 -27 -24 -43 -17 -19 9 -19 9
2 5 12 -2 24 2 27 10 7 17 -10 29 -17 12 -3 -7 -3 3 0 22 3 19 10 43 15 52 9
19 58 48 80 48 8 0 15 12 16 27 2 27 37 73 55 73 5 0 21 9 37 20 15 11 30 17
33 14 3 -3 16 1 29 9 44 27 132 41 182 28 66 -16 94 -14 129 12 65 45 163 17
224 -65 13 -18 35 -39 48 -46 14 -7 25 -17 25 -22 0 -6 7 -10 16 -10 26 0 44
-26 44 -64 0 -20 5 -36 10 -36 6 0 10 7 10 15 0 12 7 14 28 10 15 -4 37 -8 49
-11 21 -4 33 4 71 50 6 8 12 20 12 26 0 5 17 10 38 11 62 2 85 12 93 43 5 16
12 32 16 35 17 12 33 63 33 102 0 26 5 42 15 45 8 4 22 21 31 40 9 19 23 34
30 34 8 0 14 4 14 8 0 15 78 53 107 52 15 0 53 -3 85 -6 48 -5 59 -3 76 14 11
11 22 18 25 16 3 -4 95 48 130 73 26 19 88 35 100 25 12 -10 73 -16 135 -13
l32 1 0 416 0 416 -73 -6 c-90 -9 -119 1 -148 53 -12 23 -27 41 -33 41 -6 0
-23 15 -38 33 l-28 32 0 -62 c0 -52 -3 -63 -20 -68 -10 -3 -28 -1 -39 4 -11 6
-29 11 -40 11 -12 0 -21 5 -21 11 0 5 -16 17 -35 25 -20 8 -39 22 -42 30 -4
12 -14 14 -40 9 -21 -4 -33 -3 -29 3 8 13 -13 29 -49 38 -36 8 -57 23 -49 35
3 5 -4 9 -15 9 -12 0 -21 -4 -21 -9 0 -5 -9 -7 -21 -4 -14 4 -17 8 -8 13 8 6
10 25 4 71 -4 35 -6 106 -6 157 1 58 -2 92 -9 92 -5 0 -10 18 -10 40 0 34 3
40 21 40 19 0 21 -5 17 -40 -2 -22 0 -40 4 -40 4 0 8 13 10 30 3 29 3 29 27
11 13 -10 24 -28 25 -41 1 -29 23 -38 29 -13 3 10 5 -1 6 -24 0 -24 5 -43 9
-43 5 0 17 -18 27 -40 10 -22 22 -40 27 -40 4 0 8 -6 8 -13 0 -25 25 -67 40
-67 15 0 40 42 40 67 0 7 4 13 8 13 5 0 17 18 27 40 17 38 20 40 62 40 l43 0
0 40 c0 49 16 52 58 10 25 -24 35 -28 54 -21 19 7 23 16 22 45 -1 20 -9 45
-18 55 -9 9 -16 29 -16 43 0 14 -7 31 -15 38 -9 7 -13 21 -10 31 4 12 -4 25
-25 40 -23 17 -30 31 -30 56 0 32 1 33 40 33 22 0 40 -3 40 -7 0 -10 58 -43
74 -43 7 0 30 -16 50 -35 21 -19 48 -38 61 -41 13 -3 26 -12 29 -20 3 -8 10
-14 16 -14 6 0 10 53 10 149 l0 149 -30 12 c-35 15 -64 39 -72 61 -4 10 -24
22 -45 29 -89 28 -140 61 -126 83 23 35 3 107 -29 107 -10 0 -18 -4 -18 -9 0
-4 -28 -11 -62 -15 -58 -6 -64 -4 -84 19 -12 14 -36 28 -55 32 -18 3 -44 19
-57 35 -13 15 -27 26 -31 23 -5 -2 -23 7 -41 20 -19 14 -42 25 -51 25 -10 0
-19 3 -21 8 -1 4 -21 19 -43 33 -115 74 -154 103 -160 117 -7 18 19 49 49 58
11 4 33 15 47 25 23 16 26 23 19 52 -4 18 -15 46 -25 61 -17 26 -21 27 -69 20
-27 -3 -58 -11 -67 -17 -20 -13 -43 -80 -29 -85 11 -4 14 -32 4 -32 -4 0 -13
8 -21 18 -10 12 -16 14 -19 4 -4 -9 -12 -7 -32 7 -15 10 -38 22 -52 25 -44 13
-90 37 -90 46 0 6 -4 10 -9 10 -5 0 -12 -21 -16 -47 -4 -26 -13 -60 -21 -75
-17 -32 -29 -284 -25 -492 2 -134 3 -140 27 -158 13 -11 24 -25 24 -33 0 -11
38 -41 92 -70 10 -5 18 -17 18 -27 0 -9 4 -20 10 -23 6 -3 10 -17 10 -29 0
-15 15 -36 40 -57 41 -35 70 -100 70 -158 0 -22 5 -31 16 -31 14 0 16 -9 12
-62 -2 -35 -3 -53 -1 -40 7 36 23 25 23 -16 0 -37 -1 -39 -35 -40 -22 -1 -35
3 -35 11 0 7 -18 26 -39 43 -28 20 -41 39 -46 64 -4 22 -20 47 -43 68 -33 30
-35 37 -34 85 2 57 -2 68 -35 86 -20 10 -23 9 -31 -21 -7 -28 -15 -35 -55 -46
-35 -10 -47 -18 -47 -33 0 -13 -7 -19 -21 -19 -11 0 -18 -4 -14 -9 8 -14 -58
-25 -87 -15 -12 4 -29 7 -36 6 -6 -2 -20 2 -30 7 -9 6 -11 11 -4 11 6 0 12 8
12 18 0 10 9 35 20 57 25 49 25 65 1 65 -11 0 -21 5 -23 11 -3 8 -14 8 -41 1
-22 -6 -37 -7 -37 -1 0 5 -18 9 -40 9 -29 0 -40 -4 -40 -15 0 -8 -4 -15 -10
-15 -5 0 -10 7 -10 15 0 8 5 15 10 15 6 0 10 18 10 39 0 28 6 44 19 53 11 8
25 26 32 41 7 15 16 27 21 27 4 0 8 7 8 15 0 15 19 55 31 65 3 3 12 22 20 43
7 20 17 37 21 37 4 0 8 11 8 25 0 14 4 25 8 25 5 0 15 19 21 43 16 53 62 147
72 147 4 0 11 15 14 33 4 17 11 37 15 42 14 18 22 79 26 185 2 69 10 124 22
160 19 54 19 55 1 58 -11 2 -19 11 -19 21 0 15 -11 19 -55 24 -30 3 -69 2 -86
-3 -20 -6 -50 -5 -82 2 -43 9 -51 8 -59 -6 -5 -9 -16 -16 -23 -16 -8 0 -15 -4
-15 -10 0 -5 -18 -10 -40 -10 l-40 0 0 -80 c0 -64 -3 -80 -15 -80 -11 0 -15
-12 -15 -45 0 -43 -1 -45 -37 -55 -50 -15 -195 -9 -201 8 -2 6 3 12 12 12 10
0 16 9 16 25 0 23 4 25 40 25 l40 0 0 55 0 55 -40 0 c-22 0 -40 -4 -40 -10 0
-17 -149 -12 -166 5 -9 8 -11 15 -5 15 6 0 11 16 11 35 0 32 3 35 28 35 15 0
33 5 40 12 9 9 12 0 12 -40 l0 -52 40 0 c22 0 40 5 40 10 0 6 18 10 40 10 29
0 40 4 40 15 0 11 11 15 40 15 29 0 40 4 40 15 0 11 11 15 40 15 22 0 40 5 40
10 0 6 18 10 40 10 22 0 40 5 40 10 0 6 -33 10 -80 10 -47 0 -80 -4 -80 -10 0
-5 -10 -10 -22 -10 -19 0 -20 -2 -8 -10 12 -8 10 -10 -8 -10 -13 0 -21 4 -18
9 11 17 -5 39 -27 39 -12 1 -41 2 -65 3 -31 1 -46 -3 -56 -16 -12 -16 -15 -16
-61 0 -27 9 -67 18 -90 21 -22 2 -67 9 -100 14 -61 10 -155 17 -350 25 -120 6
-342 23 -390 31 -16 3 -100 9 -185 14 -85 5 -189 14 -230 19 -150 20 -278 31
-415 36 -235 9 -287 15 -514 55 -30 6 -113 10 -185 11 -72 0 -165 4 -206 9
-206 24 -269 30 -435 40 -99 5 -209 14 -245 20 -36 5 -119 14 -185 20 -66 6
-210 19 -320 30 -110 10 -234 22 -275 25 -77 5 -342 37 -465 55 -93 14 -215
34 -472 76 l-33 5 0 -1787z m5680 1081 c0 -22 -4 -25 -40 -25 -36 0 -40 3 -40
25 0 23 4 25 40 25 36 0 40 -2 40 -25z m-140 -35 c0 -5 -4 -10 -10 -10 -5 0
-10 5 -10 10 0 6 5 10 10 10 6 0 10 -4 10 -10z m-83 -352 c-2 -7 -13 -12 -24
-10 -10 1 -28 -7 -38 -18 -23 -25 -35 -26 -35 0 0 11 -6 20 -12 20 -9 0 -8 4
2 10 23 15 113 13 107 -2z m-177 -48 c0 -22 -4 -40 -10 -40 -5 0 -10 18 -10
40 0 22 5 40 10 40 6 0 10 -18 10 -40z m-800 -110 c0 -5 -11 -10 -24 -10 -13
0 -31 -3 -40 -6 -11 -4 -16 -1 -16 10 0 12 10 16 40 16 22 0 40 -4 40 -10z
m2160 -140 c0 -11 5 -20 10 -20 6 0 10 -35 10 -85 l0 -85 30 0 c27 0 30 -3 30
-30 0 -28 3 -30 36 -30 19 0 42 -7 50 -15 9 -8 11 -15 5 -15 -6 0 -11 -9 -11
-20 0 -31 -69 -28 -108 5 -17 14 -35 25 -41 25 -6 0 -11 7 -11 15 0 18 -49 64
-67 65 -8 0 -13 15 -13 40 0 22 -4 40 -10 40 -5 0 -10 18 -10 40 0 22 5 40 10
40 6 0 10 11 10 25 0 23 4 25 40 25 33 0 40 -3 40 -20z m160 -47 c0 -10 14
-27 30 -38 l30 -20 -38 -6 c-20 -4 -39 -5 -42 -4 -9 6 1 85 11 85 5 0 9 -8 9
-17z m-2110 -24 c0 -8 -15 -13 -65 -22 -11 -2 -19 -8 -18 -15 9 -39 -158 -59
-230 -28 l-37 16 20 22 c17 18 36 23 122 29 57 4 114 11 128 17 26 10 80 -2
80 -19z m1665 -19 c10 -11 23 -20 29 -20 6 -1 20 -15 31 -33 11 -18 30 -36 43
-42 17 -8 22 -18 22 -47 0 -38 0 -38 -40 -38 -35 0 -40 -3 -41 -22 0 -16 -10
-2 -30 40 -17 34 -35 62 -40 62 -5 0 -9 27 -9 60 0 64 6 72 35 40z m-375 -300
c0 -5 -9 -10 -20 -10 -11 0 -20 5 -20 10 0 6 9 10 20 10 11 0 20 -4 20 -10z
m-460 -30 c0 -5 -8 -10 -17 -10 -15 0 -16 2 -3 10 19 12 20 12 20 0z m800
-260 c0 -5 18 -13 40 -16 30 -5 40 -11 40 -26 0 -15 -3 -17 -19 -8 -11 5 -33
10 -48 10 -35 0 -69 22 -59 38 9 15 46 16 46 2z m-140 -1254 c0 -3 -4 -8 -10
-11 -5 -3 -10 -1 -10 4 0 6 5 11 10 11 6 0 10 -2 10 -4z m-1430 -375 c0 -22
-7 -46 -15 -55 -8 -8 -15 -19 -15 -25 0 -6 -18 -11 -40 -11 -29 0 -40 -4 -40
-15 0 -8 5 -15 10 -15 6 0 10 -4 10 -10 0 -5 -9 -10 -20 -10 -11 0 -20 5 -20
10 0 6 -13 10 -30 10 -28 0 -30 2 -30 40 0 22 -5 40 -11 40 -5 0 -7 5 -3 12 6
9 9 9 12 0 5 -15 62 -16 62 -1 0 5 5 7 10 4 6 -3 10 2 10 12 0 16 6 18 40 15
35 -4 40 -2 40 17 0 12 6 21 15 21 11 0 15 -11 15 -39z m-482 -33 c22 -34 13
-64 -15 -54 -8 3 -13 -2 -13 -14 0 -17 -7 -20 -40 -20 l-40 0 0 40 c0 29 4 40
15 40 8 0 24 9 35 20 27 27 35 25 58 -12z m747 -98 c3 -5 1 -10 -4 -10 -6 0
-11 5 -11 10 0 6 2 10 4 10 3 0 8 -4 11 -10z m-699 -466 c-3 -8 -2 -13 3 -9
14 8 41 -5 41 -21 0 -18 1 -18 -46 6 -22 11 -31 19 -21 20 9 0 17 5 17 10 0 6
3 10 6 10 3 0 3 -7 0 -16z"/>
<path d="M6026 10575 c-3 -9 0 -15 9 -15 9 0 12 6 9 15 -4 8 -7 15 -9 15 -2 0
-5 -7 -9 -15z"/>
<path d="M6498 10533 c-10 -3 -18 -9 -18 -14 0 -16 -27 -39 -46 -39 -14 0 -16
-8 -12 -52 3 -31 12 -56 22 -63 9 -7 16 -20 16 -29 0 -9 5 -16 10 -16 6 0 8
-17 5 -42 -2 -24 -2 -35 1 -25 5 15 8 16 27 2 12 -8 33 -15 48 -15 15 0 32 -7
39 -15 7 -8 20 -15 30 -15 10 0 23 7 30 15 16 19 44 19 60 0 7 -8 16 -12 21
-9 5 3 24 -10 42 -28 29 -29 33 -39 29 -71 -2 -21 -10 -37 -17 -37 -7 0 -15
-6 -18 -14 -7 -17 -136 -40 -184 -33 -29 5 -36 3 -40 -13 -3 -11 -10 -20 -17
-20 -6 -1 -1 -9 12 -19 26 -23 27 -36 7 -84 -22 -54 -20 -104 5 -112 11 -4 32
-17 45 -31 13 -13 30 -24 38 -24 8 0 22 -9 32 -20 18 -20 18 -21 -3 -27 -12
-3 -22 -9 -22 -13 0 -8 35 -20 60 -20 19 0 40 65 33 102 -6 30 29 88 53 88 8
0 14 6 14 13 0 22 94 58 102 39 4 -10 70 -57 91 -65 14 -5 16 -11 8 -25 -6
-11 -5 -25 3 -39 l11 -23 29 25 c16 14 36 25 45 25 20 -1 61 -34 61 -50 0 -6
5 -8 10 -5 6 3 10 15 10 25 0 10 7 25 15 33 12 12 14 62 15 296 l0 281 -96 0
-97 0 -33 35 c-18 19 -41 35 -51 35 -11 0 -24 5 -31 12 -9 9 -12 9 -12 -1 0
-8 -6 -11 -15 -7 -19 7 -65 -13 -65 -28 0 -6 -10 -16 -22 -21 -16 -7 -29 -28
-41 -67 -21 -67 -39 -77 -101 -53 -35 13 -49 27 -70 65 -30 55 -32 81 -10 115
15 23 15 25 -1 25 -12 0 -15 5 -10 19 7 22 -19 40 -47 34z m466 -499 c9 -22 7
-36 -3 -30 -4 3 -6 -6 -3 -19 2 -14 8 -25 13 -25 5 0 9 -9 9 -20 0 -11 -4 -20
-10 -20 -5 0 -10 -9 -10 -20 0 -11 -5 -20 -11 -20 -6 0 -13 9 -16 20 -4 14
-14 20 -32 20 -14 0 -21 4 -15 8 6 4 14 29 16 56 6 46 19 66 44 66 7 0 15 -7
18 -16z m13 -173 c0 -11 -5 -18 -9 -15 -4 3 -5 11 -1 19 7 21 12 19 10 -4z"/>
<path d="M6365 10461 c-5 -9 35 -45 42 -38 1 2 0 13 -4 25 -5 22 -27 30 -38
13z"/>
<path d="M6400 10229 c0 -5 5 -7 10 -4 6 3 10 8 10 11 0 2 -4 4 -10 4 -5 0
-10 -5 -10 -11z"/>
<path d="M6400 10040 c0 -5 5 -10 10 -10 6 0 10 5 10 10 0 6 -4 10 -10 10 -5
0 -10 -4 -10 -10z"/>
<path d="M7080 9725 c-10 -12 -9 -16 3 -21 17 -6 37 2 37 16 0 15 -29 19 -40
5z"/>
<path d="M7142 9700 c0 -14 2 -19 5 -12 2 6 2 18 0 25 -3 6 -5 1 -5 -13z"/>
<path d="M7068 9599 c-13 -17 -38 -37 -57 -45 -24 -10 -31 -18 -27 -30 3 -8 6
-20 6 -25 0 -15 22 -10 43 9 15 13 21 14 24 4 3 -8 12 -4 25 13 25 32 75 58
99 52 29 -8 23 18 -8 34 -20 11 -27 11 -30 2 -6 -18 -23 -16 -23 2 0 25 -28
17 -52 -16z"/>
<path d="M5908 9160 c2 -22 6 -40 8 -40 2 0 4 18 4 40 0 22 -3 40 -8 40 -4 0
-6 -18 -4 -40z"/>
<path d="M6132 9028 c6 -18 28 -21 28 -4 0 9 -7 16 -16 16 -9 0 -14 -5 -12
-12z"/>
<path d="M6161 8974 c0 -11 3 -14 6 -6 3 7 2 16 -1 19 -3 4 -6 -2 -5 -13z"/>
<path d="M7020 8810 c-13 -8 -12 -10 3 -10 9 0 17 5 17 10 0 12 -1 12 -20 0z"/>
<path d="M7122 7400 c-45 -27 -40 -56 8 -52 41 3 37 0 42 36 4 37 -9 41 -50
16z"/>
<path d="M6736 7245 c-11 -8 -40 -22 -65 -32 -82 -31 -95 -78 -35 -131 40 -35
50 -37 139 -21 l62 11 7 71 c6 69 6 73 -19 95 -30 25 -61 28 -89 7z"/>
<path d="M1980 7105 c-14 -8 -32 -17 -40 -21 -25 -12 -70 -58 -80 -82 -6 -13
-14 -21 -19 -18 -5 4 -11 1 -13 -6 -3 -7 16 -19 46 -30 63 -22 82 -22 90 -3 7
20 66 45 105 45 16 0 32 4 35 9 11 17 88 25 97 10 6 -10 9 -10 9 -2 0 7 -6 17
-12 23 -50 42 -67 53 -106 70 -53 24 -78 25 -112 5z"/>
<path d="M1790 6904 c-13 -19 -24 -56 -26 -82 -1 -25 -7 -55 -13 -66 -5 -12
-17 -59 -26 -106 -9 -47 -20 -87 -25 -90 -8 -5 -30 -114 -30 -149 0 -28 22 6
30 46 5 21 20 81 35 133 15 52 29 105 30 116 2 12 8 31 14 42 6 11 11 32 11
46 0 14 5 26 10 26 6 0 10 15 10 33 0 25 3 29 11 17 9 -13 10 -12 5 3 -3 10 1
29 10 43 15 23 15 24 -4 24 -13 0 -29 -14 -42 -36z"/>
<path d="M5235 6930 c-3 -5 -3 -10 2 -10 4 0 1 -4 -7 -10 -8 -5 -11 -12 -7
-16 9 -9 48 26 41 37 -7 12 -21 11 -29 -1z"/>
<path d="M5253 6895 c-27 -40 -87 -103 -75 -80 6 11 20 30 31 42 19 20 19 22
4 35 -14 11 -16 11 -11 -3 4 -10 -5 -24 -24 -40 -16 -13 -36 -35 -43 -49 -7
-14 -29 -41 -49 -61 -22 -22 -32 -40 -27 -48 6 -9 14 -6 29 13 25 33 28 33 27
-3 0 -25 -3 -28 -25 -24 -13 2 -22 1 -18 -2 3 -4 -2 -15 -12 -25 -10 -10 -22
-26 -28 -36 -6 -10 -14 -15 -18 -11 -4 4 5 21 21 37 22 23 26 33 17 42 -8 8
-12 8 -12 1 0 -6 -14 -26 -32 -44 -48 -52 -108 -130 -108 -141 0 -6 6 -8 13
-5 8 3 14 -1 14 -9 0 -8 -4 -14 -8 -14 -4 0 -21 -19 -38 -42 -17 -23 -31 -37
-31 -30 0 6 14 27 30 46 20 22 27 37 20 41 -13 8 -53 -29 -43 -39 4 -3 1 -6
-5 -6 -7 0 -12 -6 -12 -14 0 -8 -5 -18 -12 -22 -7 -4 -8 -3 -4 4 4 7 5 12 2
12 -4 0 -14 -18 -23 -40 -12 -26 -23 -38 -32 -35 -9 4 -11 0 -7 -11 5 -12 2
-15 -11 -9 -13 4 -10 -1 7 -17 51 -48 94 -79 105 -74 7 2 18 0 26 -6 11 -8 10
-9 -4 -4 -30 10 -16 -9 47 -60 l59 -47 31 34 c55 62 276 338 276 345 0 4 16
24 35 45 22 25 33 45 29 56 -4 13 -3 14 3 5 7 -9 15 -6 34 15 28 33 83 103 92
120 5 7 -15 29 -50 56 -77 58 -93 66 -63 31 14 -16 18 -23 10 -16 -19 16 -27
15 -34 -4 -4 -12 -2 -15 9 -10 21 8 19 0 -6 -25 l-21 -21 7 24 c5 19 2 18 -24
-12 -35 -40 -41 -63 -11 -35 18 16 20 17 14 2 -4 -12 1 -20 21 -27 19 -7 26
-16 23 -32 -2 -12 -10 -24 -18 -26 -13 -5 -13 -3 -1 12 21 25 -1 46 -30 28
-19 -12 -19 -12 -8 10 l12 23 -22 -19 c-18 -17 -21 -17 -15 -3 9 25 -4 21 -31
-10 -27 -31 -35 -64 -11 -44 17 14 38 7 55 -20 8 -14 9 -25 3 -31 -6 -6 -12
-6 -16 1 -8 13 -36 15 -36 3 0 -5 10 -14 23 -21 16 -9 17 -10 2 -5 -11 4 -27
7 -36 8 -11 0 -15 6 -11 16 5 13 3 13 -11 1 -15 -12 -17 -12 -11 3 8 21 -5 21
-22 -1 -11 -15 -13 -15 -14 -3 0 8 14 29 30 47 17 18 30 35 30 38 0 3 16 22
35 42 31 32 48 62 27 49 -4 -2 -8 4 -8 15 0 18 2 18 12 5 10 -14 13 -14 28 3
13 15 14 20 4 24 -7 3 -4 6 8 6 36 2 27 43 -15 71 -50 34 -47 34 -68 5z m35
-47 c-29 -40 -46 -62 -76 -96 l-24 -27 14 26 c18 35 91 128 101 129 4 0 -3
-14 -15 -32z m132 -79 c0 -6 6 -9 13 -6 7 3 13 -3 13 -12 0 -10 -6 -18 -13
-18 -7 0 -13 4 -13 9 0 5 -4 7 -9 4 -5 -3 -11 3 -14 14 -3 13 0 20 9 20 8 0
14 -5 14 -11z m-20 -66 c0 -8 -9 -7 -30 3 -16 9 -30 18 -30 20 0 3 5 2 11 -1
6 -4 13 3 16 15 l6 22 13 -23 c7 -13 13 -29 14 -36z m-217 10 c-7 -2 -13 -9
-13 -14 0 -5 -9 -20 -20 -32 -38 -42 -285 -349 -300 -373 -14 -22 -46 -35 -38
-16 3 9 64 83 107 131 13 14 35 42 50 61 14 19 38 48 54 64 19 20 26 36 21 50
-4 15 -3 17 4 8 8 -11 14 -9 31 9 12 13 19 29 17 36 -3 7 0 15 6 19 7 4 8 3 4
-4 -4 -7 -2 -12 3 -12 6 0 11 4 11 8 0 14 52 72 64 71 7 0 6 -3 -1 -6z m151
-92 c-3 -3 -15 6 -27 18 l-22 24 27 -19 c14 -10 24 -21 22 -23z m11 -31 c-3
-5 -12 -10 -18 -10 -7 0 -6 4 3 10 19 12 23 12 15 0z m-382 -56 c-19 -29 -19
-29 -19 -5 0 11 5 17 10 14 5 -4 7 1 3 10 -4 11 -2 14 8 11 12 -5 12 -10 -2
-30z m180 6 c-10 -12 -28 -34 -40 -48 -26 -31 -28 -38 -10 -46 6 -3 2 -3 -10
0 -16 3 -23 -1 -28 -16 -4 -11 -11 -18 -16 -15 -5 4 -2 13 6 22 9 9 14 22 11
29 -3 8 0 11 9 8 8 -3 19 4 26 18 14 27 61 79 67 74 2 -2 -5 -14 -15 -26z m35
1 c-13 -15 -25 -27 -27 -25 -4 4 39 54 47 54 2 0 -7 -13 -20 -29z m52 -21 c13
-8 13 -10 -2 -10 -11 0 -15 -5 -12 -15 5 -11 2 -13 -12 -8 -14 5 -16 3 -11
-13 7 -19 7 -19 -8 0 -20 26 -19 37 2 29 12 -5 15 -2 10 10 -7 19 9 22 33 7z
m-62 -57 c17 -32 15 -35 -20 -31 -20 2 -33 -2 -36 -11 -3 -10 1 -12 16 -9 20
6 37 -13 25 -26 -10 -10 -25 -7 -18 4 3 6 2 10 -4 10 -16 0 -22 -18 -9 -26 8
-5 4 -10 -11 -16 -12 -4 -19 -12 -16 -18 9 -14 -8 -13 -23 2 -16 16 -15 26 1
24 6 0 12 4 12 9 0 6 -6 9 -12 9 -7 -1 -10 2 -7 8 3 5 14 6 25 3 14 -5 17 -3
13 9 -10 25 16 48 45 42 14 -3 20 -3 14 0 -7 3 -13 13 -13 21 0 12 -3 13 -15
3 -8 -6 -20 -10 -27 -7 -8 4 -7 6 5 6 9 1 16 4 16 9 -1 4 -1 13 0 20 1 17 21
-1 39 -35z m-148 -83 c0 -5 -2 -10 -4 -10 -3 0 -8 5 -11 10 -3 6 -1 10 4 10 6
0 11 -4 11 -10z m-206 -35 c-14 -19 -31 -35 -37 -35 -14 0 47 69 61 70 2 0 -9
-16 -24 -35z m176 5 c0 -5 -4 -10 -10 -10 -5 0 -10 5 -10 10 0 6 5 10 10 10 6
0 10 -4 10 -10z m-27 -34 c7 3 -3 -8 -22 -25 -19 -17 -37 -28 -40 -25 -3 3 1
9 8 13 7 5 11 13 7 19 -3 6 -1 14 5 18 7 4 9 3 5 -4 -3 -6 -2 -13 4 -17 6 -3
10 4 11 17 0 13 3 17 6 10 2 -6 10 -10 16 -6z m-72 -29 c-10 -9 -11 -8 -5 6 3
10 9 15 12 12 3 -3 0 -11 -7 -18z m60 -42 c5 4 9 1 9 -4 0 -7 7 -7 20 1 37 23
75 -23 51 -61 -14 -22 -60 -5 -67 25 -4 16 -11 23 -21 20 -8 -3 -11 -2 -8 3 3
5 1 12 -5 16 -6 4 -7 12 -3 18 5 8 9 6 11 -6 2 -9 8 -15 13 -12z"/>
<path d="M1736 6893 c-6 -14 -5 -15 5 -6 7 7 10 15 7 18 -3 3 -9 -2 -12 -12z"/>
<path d="M1742 6840 c0 -14 2 -19 5 -12 2 6 2 18 0 25 -3 6 -5 1 -5 -13z"/>
<path d="M1711 6834 c0 -11 3 -14 6 -6 3 7 2 16 -1 19 -3 4 -6 -2 -5 -13z"/>
<path d="M5095 6699 c-4 -6 -5 -12 -2 -15 2 -3 7 2 10 11 7 17 1 20 -8 4z"/>
<path d="M2435 6670 c-11 -5 -32 -9 -46 -9 -14 -1 -34 -10 -44 -21 -10 -11
-21 -17 -26 -14 -5 2 -22 -2 -39 -11 -17 -9 -35 -13 -40 -10 -6 3 -7 -1 -4 -9
7 -18 55 -21 82 -6 9 5 49 16 87 24 59 11 75 11 104 0 60 -25 67 -15 22 34
-30 32 -57 39 -96 22z"/>
<path d="M5246 6624 c-9 -8 -16 -11 -16 -5 0 6 -8 11 -17 11 -16 -1 -16 -2 1
-15 24 -18 28 -18 51 -2 11 9 14 16 7 21 -6 3 -18 -1 -26 -10z"/>
<path d="M4827 6523 c-4 -3 -7 -11 -7 -17 0 -6 5 -5 12 2 6 6 9 14 7 17 -3 3
-9 2 -12 -2z"/>
<path d="M2026 6380 c-27 -83 -34 -140 -15 -140 5 0 8 4 4 10 -3 5 3 18 15 30
11 11 20 16 20 11 0 -6 -4 -12 -8 -15 -5 -3 -9 -24 -10 -48 -1 -24 -4 -56 -7
-73 -5 -27 -5 -28 8 -12 8 10 18 39 23 65 4 26 9 54 11 62 3 14 3 66 0 117 -1
11 -5 19 -9 17 -4 -3 -5 9 -2 26 11 55 -3 31 -30 -50z"/>
<path d="M2428 6447 c-23 -4 -53 -13 -65 -19 -11 -6 -27 -7 -34 -3 -8 6 -11 4
-7 -6 3 -8 0 -23 -8 -34 -16 -22 -19 -55 -4 -55 6 0 29 19 51 42 l40 42 17
-34 c15 -30 22 -35 54 -36 20 0 35 3 32 8 -3 5 5 6 19 3 16 -4 26 -2 30 8 3 8
19 17 36 20 39 8 39 21 1 44 -16 9 -30 22 -30 28 0 5 -5 3 -10 -5 -7 -10 -13
-11 -17 -5 -9 12 -44 13 -105 2z m122 -62 c0 -8 -4 -15 -10 -15 -5 0 -10 7
-10 15 0 8 5 15 10 15 6 0 10 -7 10 -15z"/>
<path d="M1492 6389 c10 -27 37 -114 41 -134 3 -13 6 -7 7 15 l3 35 6 -40 c8
-54 37 -59 69 -10 12 19 22 39 22 45 0 5 5 10 12 10 6 0 9 3 6 6 -4 3 -16 1
-27 -5 -27 -15 -71 7 -91 44 -16 29 -57 58 -48 34z"/>
<path d="M2350 6340 c0 -5 5 -10 10 -10 6 0 10 5 10 10 0 6 -4 10 -10 10 -5 0
-10 -4 -10 -10z"/>
<path d="M4691 6334 c0 -11 3 -14 6 -6 3 7 2 16 -1 19 -3 4 -6 -2 -5 -13z"/>
<path d="M4671 6284 c0 -11 3 -14 6 -6 3 7 2 16 -1 19 -3 4 -6 -2 -5 -13z"/>
<path d="M1360 6281 c0 -5 4 -12 9 -15 4 -3 11 -24 15 -46 3 -22 11 -40 16
-40 14 0 12 25 -4 64 -14 33 -36 56 -36 37z"/>
<path d="M5162 6200 c-7 -11 -10 -20 -6 -20 7 0 34 27 34 34 0 13 -16 5 -28
-14z"/>
<path d="M1238 6154 c-30 -16 -35 -24 -15 -24 16 0 54 27 47 33 -3 3 -17 -1
-32 -9z"/>
<path d="M1412 6150 c0 -14 2 -19 5 -12 2 6 2 18 0 25 -3 6 -5 1 -5 -13z"/>
<path d="M1999 6098 c-1 -13 -1 -31 0 -40 2 -13 -2 -16 -16 -11 -16 6 -16 5
-4 -10 9 -11 13 -38 12 -71 -1 -48 1 -54 25 -65 32 -14 57 -7 89 25 l24 24
-42 22 c-23 12 -51 27 -62 33 -12 7 -19 19 -17 31 13 74 13 84 3 84 -6 0 -12
-10 -12 -22z"/>
<path d="M72 6086 c-12 -6 -21 -15 -19 -21 6 -18 48 -17 68 1 34 30 0 45 -49
20z"/>
<path d="M3160 6090 c0 -5 5 -10 11 -10 5 0 7 5 4 10 -3 6 -8 10 -11 10 -2 0
-4 -4 -4 -10z"/>
<path d="M5435 6080 c3 -5 -1 -10 -10 -10 -21 0 -39 -43 -31 -75 9 -36 52 -52
77 -29 11 10 25 30 33 45 13 27 13 29 -23 53 -39 27 -57 33 -46 16z"/>
<path d="M3129 6035 c-7 -16 -16 -32 -19 -35 -4 -3 -12 -21 -20 -40 -25 -67
-42 -105 -77 -175 l-34 -70 6 53 c4 36 3 52 -5 47 -5 -3 -10 -13 -10 -21 0 -8
-4 -14 -10 -14 -5 0 -10 -7 -10 -16 0 -18 -30 -74 -96 -174 -27 -41 -54 -87
-60 -101 -7 -15 -17 -30 -23 -33 -6 -4 -19 -24 -27 -44 -16 -36 -17 -36 -23
-12 l-7 25 -19 -22 c-11 -13 -25 -23 -31 -23 -7 0 -15 -6 -17 -12 -4 -10 -6
-10 -6 -1 -1 7 -8 10 -18 6 -12 -4 -8 5 12 28 33 37 42 46 130 123 87 77 116
140 121 265 l3 96 -15 -65 c-43 -182 -57 -209 -165 -321 -99 -102 -171 -142
-314 -179 -51 -13 -162 -13 -170 0 -3 5 -12 7 -19 4 -14 -5 -53 29 -101 89
-16 20 -39 40 -50 43 -64 18 -61 18 -46 0 12 -14 10 -16 -23 -16 -20 0 -46 5
-59 12 -12 6 -28 14 -36 18 -8 3 -19 15 -25 25 -6 11 -17 25 -24 33 -7 8 -10
23 -7 33 4 10 3 19 -2 19 -13 0 -9 108 5 122 15 15 16 44 2 53 -5 3 -10 2 -10
-3 0 -6 -15 -13 -32 -16 -44 -8 -101 -47 -195 -133 -43 -39 -94 -83 -113 -99
-19 -16 -37 -32 -40 -35 -3 -4 -16 -9 -30 -10 -21 -4 -27 -13 -43 -74 -10 -38
-23 -75 -29 -83 -8 -9 -8 -16 -1 -20 6 -4 9 -30 8 -59 -2 -35 1 -51 8 -49 7 2
9 1 5 -1 -16 -9 -8 -35 8 -29 9 3 21 6 27 6 18 0 87 64 87 80 0 13 21 44 62
91 8 8 59 28 114 44 116 34 127 40 114 65 -12 23 -13 97 -2 104 5 3 36 -25 69
-62 48 -54 78 -76 149 -112 49 -24 90 -45 92 -46 2 -1 3 -17 2 -35 0 -19 0
-44 0 -56 0 -13 -6 -23 -13 -23 -8 0 -9 -3 -1 -8 6 -4 14 -20 18 -36 4 -16 29
-51 57 -78 27 -28 49 -54 49 -59 0 -5 19 -21 43 -35 23 -15 44 -30 47 -34 15
-21 196 -88 183 -68 -4 7 9 9 38 5 80 -11 298 -17 254 -7 -22 5 -71 9 -110 9
-76 1 -212 24 -226 38 -5 5 22 8 64 7 39 -1 56 0 37 3 -56 8 -143 32 -154 43
-8 8 2 9 33 4 30 -5 42 -4 38 4 -4 5 -29 13 -56 17 -52 7 -105 34 -68 35 16 0
17 2 3 15 -8 8 -22 15 -31 15 -21 0 -31 28 -15 43 10 9 11 9 6 -1 -5 -7 2 -15
16 -21 13 -5 30 -16 37 -25 7 -9 19 -16 26 -16 7 0 18 -6 24 -14 16 -19 121
-29 196 -18 l60 8 -75 7 c-79 8 -137 21 -182 40 -46 20 -32 29 32 22 72 -8 81
7 15 25 -25 7 -48 17 -51 21 -7 12 13 11 34 0 9 -5 40 -11 67 -15 l50 -7 -65
23 c-36 13 -76 31 -90 42 -19 14 -20 17 -5 11 37 -13 160 -43 163 -40 2 2 -16
9 -40 16 -23 7 -56 22 -73 32 -28 17 -28 18 -5 13 14 -4 54 -13 90 -21 36 -8
80 -19 99 -24 19 -6 37 -9 39 -6 2 2 -22 11 -54 20 -124 33 -160 45 -179 60
-19 14 -19 14 4 15 14 0 43 9 65 20 34 16 68 20 202 24 155 4 162 5 186 29 13
13 30 40 37 58 13 34 23 56 60 140 12 25 21 51 21 57 0 7 5 12 11 12 8 0 9
-13 5 -40 -4 -25 -2 -40 4 -40 16 0 12 -103 -6 -128 -8 -12 -12 -22 -7 -22 4
0 1 -5 -7 -10 -10 -6 -11 -10 -2 -10 6 0 21 9 32 20 16 16 20 17 20 5 0 -8 -5
-15 -11 -15 -6 0 -9 -12 -7 -27 3 -25 7 -28 38 -26 42 3 124 -32 98 -42 -14
-5 -15 -12 -6 -36 5 -16 19 -36 31 -44 11 -8 19 -17 16 -19 -2 -3 -45 0 -94 5
-50 5 -115 11 -145 13 -30 1 -66 6 -80 10 -19 6 -21 5 -10 -3 13 -9 13 -11 -2
-11 -10 0 -18 -4 -18 -10 0 -5 1 -10 3 -10 69 -2 383 -33 410 -41 32 -8 36
-13 26 -25 -9 -11 -7 -14 15 -14 43 0 30 -19 -16 -23 -27 -3 -22 -4 15 -2 31
0 57 -2 57 -7 0 -4 8 -8 19 -8 10 0 30 -11 44 -24 15 -14 41 -33 59 -43 18
-10 37 -24 41 -30 4 -7 14 -13 20 -13 7 0 24 -13 37 -28 14 -16 30 -31 36 -33
14 -5 99 -101 155 -174 45 -59 91 -172 104 -257 6 -39 19 -49 29 -23 3 8 9 15
13 15 17 0 63 -52 69 -78 4 -15 14 -33 23 -40 8 -7 16 -20 16 -30 0 -11 8 -17
25 -17 17 0 26 -7 30 -25 5 -18 12 -24 28 -23 18 2 22 -2 22 -23 0 -22 3 -25
23 -20 12 3 28 6 35 6 6 0 12 7 12 16 0 14 -3 14 -15 4 -12 -10 -15 -10 -15 1
0 8 -13 27 -29 42 -17 15 -33 36 -36 47 -4 11 -10 20 -15 20 -18 0 -70 101
-70 135 0 21 -5 35 -12 35 -7 0 -5 5 5 11 35 21 78 -2 159 -83 20 -21 39 -34
42 -29 6 10 -12 71 -25 86 -5 5 -9 19 -9 32 0 16 -4 21 -15 17 -11 -5 -13 -2
-9 10 4 12 13 15 28 10 11 -4 28 -7 36 -8 8 -1 17 -4 20 -7 6 -7 237 -99 249
-99 4 0 22 -7 40 -16 18 -9 35 -14 38 -11 6 7 -38 27 -152 69 -91 34 -144 70
-141 95 3 19 26 31 26 14 0 -21 26 -11 58 23 29 31 35 34 65 25 17 -5 34 -9
37 -9 3 0 -1 -4 -9 -9 -12 -8 -12 -12 -2 -24 9 -12 9 -16 -1 -20 -27 -11 40
-7 72 4 60 21 260 168 260 191 0 11 -87 -38 -121 -69 -14 -12 -29 -23 -35 -23
-5 0 -20 -12 -33 -26 -24 -25 -102 -66 -110 -58 -3 2 5 12 18 20 17 12 19 19
11 29 -8 9 -8 15 0 20 17 11 11 25 -17 38 -16 6 -35 18 -43 26 -12 12 -11 13
8 7 12 -4 22 -3 22 2 0 5 27 15 60 22 57 12 180 75 180 92 0 13 -9 10 -104
-27 -106 -41 -217 -58 -302 -45 -92 15 -157 29 -187 41 -43 18 -26 20 29 4 97
-28 193 -36 292 -24 50 6 92 15 92 20 0 5 -66 9 -146 9 -101 0 -165 5 -208 16
-74 19 -280 125 -240 124 5 0 18 -7 28 -15 11 -8 25 -15 30 -15 6 0 -2 9 -19
20 -16 11 -38 19 -47 16 -11 -2 -18 2 -18 10 0 8 -13 17 -29 20 -15 3 -53 30
-83 59 -31 30 -58 51 -62 48 -3 -4 -6 -1 -6 6 0 14 -11 29 -72 91 -33 34 -46
54 -41 66 4 12 2 15 -8 12 -9 -3 -18 8 -26 31 l-12 36 5 -35 c5 -34 4 -33 -20
15 -14 28 -25 56 -25 63 -1 6 -5 12 -10 12 -5 0 -12 11 -15 25 -4 14 -12 25
-18 25 -9 0 -9 -3 0 -12 7 -7 12 -19 12 -27 0 -29 140 -295 173 -329 32 -33
142 -112 157 -112 4 0 13 -7 20 -15 7 -9 8 -15 2 -15 -16 0 -62 26 -56 32 2 3
-2 8 -11 11 -23 10 -18 -7 13 -38 15 -15 28 -38 29 -50 2 -23 1 -23 -28 -7
-21 13 -27 22 -23 37 4 14 3 16 -4 7 -7 -10 -17 -9 -48 10 -21 12 -40 26 -42
30 -2 4 -9 8 -16 8 -7 0 -27 11 -46 25 -19 14 -40 23 -46 21 -6 -2 -11 3 -10
12 0 9 -11 22 -27 30 -15 7 -35 24 -43 38 -9 13 -21 24 -26 24 -6 0 -23 14
-38 30 -15 17 -31 30 -35 30 -7 0 -51 44 -102 103 -21 24 -34 33 -39 25 -4 -7
-2 -14 4 -16 7 -2 12 -8 12 -13 0 -6 -4 -7 -10 -4 -6 3 -7 -1 -3 -10 5 -13 7
-14 14 -3 7 10 11 7 15 -9 4 -13 10 -23 15 -23 5 0 9 -6 9 -13 0 -16 41 -57
57 -57 6 0 14 -7 17 -16 4 -9 9 -14 13 -10 3 3 13 -3 20 -14 8 -11 18 -18 23
-15 5 3 12 -1 17 -8 4 -7 19 -21 33 -30 13 -9 20 -17 13 -17 -15 0 -94 45
-118 67 -11 10 -41 34 -66 53 -25 20 -44 41 -41 48 2 7 -1 11 -6 10 -17 -5
-106 107 -140 175 -48 96 -54 140 -48 338 6 158 9 183 32 239 25 63 28 111 3
55z m-61 -285 c-5 -25 -15 -62 -20 -82 -6 -20 -8 -45 -6 -56 5 -17 3 -18 -18
-8 -28 13 -29 23 -5 96 16 47 19 51 24 30 4 -20 5 -19 4 6 -1 27 19 71 29 62
1 -2 -2 -23 -8 -48z m-31 -222 c-3 -8 -6 -5 -6 6 -1 11 2 17 5 13 3 -3 4 -12
1 -19z m333 -343 c7 -9 8 -15 2 -15 -5 0 -12 7 -16 15 -3 8 -4 15 -2 15 2 0 9
-7 16 -15z m546 -281 c-5 -13 -1 -15 18 -10 14 3 28 0 35 -8 6 -7 31 -21 56
-32 40 -16 59 -34 37 -34 -23 0 -112 52 -106 61 4 7 0 9 -13 5 -30 -10 -56 3
-42 20 15 19 23 18 15 -2z m-40 -35 c10 -12 36 -30 57 -41 22 -11 37 -22 34
-24 -9 -9 -106 46 -117 66 -14 26 2 26 26 -1z m144 -84 c14 -8 19 -14 10 -14
-8 0 -24 6 -34 14 -25 19 -9 19 24 0z m75 -25 l20 -9 -20 0 c-11 0 -27 4 -35
9 -13 9 -13 10 0 9 8 0 24 -4 35 -9z m92 -26 c-3 -3 -12 -4 -19 -1 -8 3 -5 6
6 6 11 1 17 -2 13 -5z m80 -30 c-3 -3 -12 -4 -19 -1 -8 3 -5 6 6 6 11 1 17 -2
13 -5z m-11 -60 c-3 -9 -6 -21 -7 -27 0 -7 -4 -3 -8 8 -9 22 -5 35 11 35 5 0
7 -7 4 -16z m-259 -196 c-3 -8 -6 -5 -6 6 -1 11 2 17 5 13 3 -3 4 -12 1 -19z"/>
<path d="M1671 5970 c-25 -85 -9 -102 69 -74 51 18 54 21 50 64 -3 32 1 29
-58 39 l-50 8 -11 -37z"/>
<path d="M2147 5993 c-13 -12 -7 -21 21 -27 15 -3 37 -8 50 -12 31 -9 27 8 -7
29 -31 18 -53 22 -64 10z"/>
<path d="M3031 5986 c-6 -7 -13 -35 -16 -62 -5 -40 -4 -45 5 -25 11 26 30 101
25 101 -1 0 -8 -6 -14 -14z"/>
<path d="M4280 5936 c0 -15 -3 -16 -15 -6 -11 9 -15 9 -15 1 0 -7 -4 -10 -9
-6 -6 3 -13 -1 -18 -8 -4 -7 -16 -16 -25 -20 -23 -8 -54 -72 -61 -124 -5 -44
10 -61 20 -23 4 15 11 18 29 14 15 -4 24 -2 24 5 0 6 -8 12 -17 12 -10 1 -5 4
12 8 36 7 48 41 15 41 -20 0 -21 1 -3 24 10 13 20 22 22 21 2 -2 17 9 34 25
25 23 29 32 19 42 -9 9 -12 8 -12 -6z"/>
<path d="M2990 5850 c0 -5 5 -10 10 -10 6 0 10 5 10 10 0 6 -4 10 -10 10 -5 0
-10 -4 -10 -10z"/>
<path d="M6453 5852 c-29 -2 -53 -6 -53 -10 0 -8 108 -8 116 1 10 9 -10 12
-63 9z"/>
<path d="M2062 5792 c-26 -4 -44 -33 -36 -59 13 -38 35 -82 44 -88 6 -3 10
-15 10 -26 0 -10 5 -19 10 -19 6 0 10 -7 10 -15 0 -8 7 -15 16 -15 11 0 15 6
11 20 -3 10 0 21 7 23 8 3 7 9 -3 21 -8 9 -11 20 -7 23 4 4 11 1 16 -6 6 -11
14 -8 34 13 16 15 38 26 54 26 16 0 33 5 40 12 6 6 25 11 41 10 17 0 33 4 36
9 4 5 15 9 27 9 26 0 78 31 78 47 0 10 -15 11 -62 7 -61 -6 -104 -23 -62 -25
40 -1 -68 -39 -131 -45 -52 -5 -65 -4 -65 7 0 11 -2 11 -10 -1 -8 -13 -10 -13
-10 2 0 12 15 20 55 29 31 7 58 16 60 20 3 4 15 5 28 2 15 -4 19 -3 12 5 -10
11 -159 21 -203 14z"/>
<path d="M1855 5760 c-3 -6 1 -13 9 -16 9 -3 16 -12 16 -20 0 -8 5 -14 10 -14
6 0 10 -7 10 -15 0 -16 16 -20 24 -6 3 5 0 14 -8 20 -8 7 -17 23 -20 36 -6 25
-30 33 -41 15z"/>
<path d="M1857 5693 c-3 -4 5 -21 18 -37 17 -21 28 -27 44 -21 12 3 21 15 21
26 0 21 -16 26 -23 7 -3 -9 -12 -6 -30 10 -13 13 -27 20 -30 15z"/>
<path d="M3103 5620 c0 -36 2 -50 4 -32 2 17 2 47 0 65 -2 17 -4 3 -4 -33z"/>
<path d="M173 5664 c-7 -3 -13 -14 -13 -24 0 -11 -11 -31 -25 -46 -23 -25 -27
-26 -69 -15 -25 6 -50 11 -55 11 -7 0 -11 -65 -11 -197 0 -153 3 -194 12 -185
22 22 38 13 38 -21 0 -18 -5 -38 -10 -43 -6 -6 -12 -53 -15 -104 -2 -52 -9
-96 -15 -98 -7 -3 -10 -307 -10 -943 l0 -939 63 -1 c173 -4 202 -11 217 -52
33 -86 39 -95 74 -101 18 -4 40 -4 47 -1 39 14 190 23 224 14 44 -12 73 -7
101 19 14 13 47 23 103 31 86 11 101 9 101 -14 0 -7 13 -23 30 -35 16 -12 30
-29 30 -39 0 -9 4 -21 10 -27 15 -15 0 -51 -29 -70 -14 -10 -55 -33 -89 -51
-35 -18 -84 -49 -108 -69 -51 -42 -8 -39 -446 -32 l-328 5 0 -677 0 -677 36
-6 c48 -8 69 0 49 19 -7 8 -18 14 -24 14 -15 0 -32 36 -26 53 3 7 1 27 -5 43
-8 20 -8 30 -1 32 6 2 11 21 11 43 0 21 3 39 8 39 7 0 32 48 32 62 0 5 11 21
25 36 14 15 25 34 25 42 1 8 14 26 30 40 17 13 30 30 30 38 0 7 27 41 60 74
33 33 60 63 60 67 0 5 14 26 30 47 17 22 39 50 49 64 11 14 28 35 38 47 10 12
29 36 43 53 39 50 51 61 61 55 5 -4 0 -16 -11 -27 -11 -12 -20 -27 -20 -32 0
-6 10 0 21 14 17 21 20 22 17 6 -2 -11 -17 -26 -35 -35 -26 -13 -31 -20 -27
-41 4 -19 3 -21 -4 -11 -9 12 -13 12 -26 2 -8 -7 -12 -19 -10 -26 3 -8 -4 -20
-15 -27 -12 -7 -21 -21 -21 -30 0 -10 -6 -18 -12 -18 -7 0 -22 -17 -34 -38
-11 -20 -26 -36 -32 -35 -7 2 -12 -4 -12 -13 0 -9 -16 -32 -36 -52 -19 -19
-31 -38 -25 -41 11 -7 10 -43 -3 -52 -4 -4 10 -8 33 -11 30 -2 41 0 41 10 0 7
8 12 18 10 13 -2 18 -15 20 -51 3 -41 1 -47 -17 -47 -10 0 -21 -5 -23 -11 -2
-7 -10 -4 -18 7 -14 16 -13 17 2 11 21 -7 24 3 6 21 -17 17 -55 15 -62 -4 -12
-31 -6 -44 20 -44 39 0 73 -42 41 -53 -9 -3 -9 -7 2 -20 11 -15 11 -17 -2 -17
-8 0 -20 7 -27 15 -19 23 -43 18 -75 -15 -36 -38 -43 -38 -48 3 -3 28 -4 26
-5 -10 -2 -36 3 -47 28 -70 32 -28 60 -38 60 -22 0 5 6 9 14 9 7 0 19 7 26 15
6 8 24 14 38 15 15 0 45 1 67 2 23 1 46 8 53 17 10 12 15 13 18 4 8 -18 29
-16 44 2 11 13 10 18 -5 29 -18 13 -18 14 1 20 16 5 19 15 19 58 0 29 4 59 10
67 7 10 1 8 -18 -3 -31 -21 -36 -12 -8 18 24 26 61 118 61 151 0 14 4 25 9 25
5 0 11 8 14 18 11 34 43 76 124 160 46 47 85 94 89 104 3 10 9 18 14 18 4 0
18 19 29 43 22 46 50 80 78 95 14 8 15 13 5 25 -10 11 -9 17 3 27 8 7 15 18
15 24 1 18 59 80 67 72 5 -4 0 -14 -11 -21 -21 -16 -15 -45 8 -45 8 0 17 -4
20 -8 9 -15 -14 -82 -35 -103 -16 -16 -24 -45 -20 -72 0 -4 -6 -7 -14 -7 -8 0
-15 -5 -15 -11 0 -6 7 -8 16 -5 10 4 14 1 12 -6 -3 -7 -18 -12 -34 -13 -23 0
-29 -5 -30 -23 -1 -12 2 -22 6 -22 8 0 86 37 155 72 46 25 183 124 206 150 9
10 21 18 26 18 6 0 19 11 29 25 10 14 24 25 31 25 22 0 14 -17 -9 -24 -19 -5
-20 -8 -9 -15 12 -7 7 -13 -20 -25 l-34 -16 55 4 55 4 -54 -17 -53 -18 28 -11
c16 -6 52 -14 79 -18 l50 -7 -35 -13 c-44 -16 -50 -16 -50 -4 0 6 7 10 17 10
9 0 14 2 11 5 -3 4 -18 3 -33 -1 -27 -7 -27 -8 -10 -21 11 -7 26 -11 34 -9 9
2 27 7 41 11 l25 6 -26 -15 c-36 -21 -139 -43 -239 -51 -136 -12 -277 -78
-216 -101 9 -4 35 -2 58 4 30 8 44 8 49 0 4 -7 9 -7 14 1 4 7 14 11 23 10 10
-2 38 7 64 19 26 12 50 22 53 22 4 0 19 8 33 18 15 11 48 24 74 30 56 14 58
14 58 3 0 -4 -15 -13 -32 -19 -30 -9 -30 -10 -8 -11 14 0 42 3 63 8 44 10 48
5 9 -11 -27 -12 -26 -12 18 -16 l45 -4 -35 -18 c-27 -15 -30 -19 -14 -20 11 0
25 5 31 11 6 6 17 9 24 7 7 -2 -6 -15 -29 -28 -23 -13 -41 -25 -39 -26 2 -2
22 4 46 12 53 18 63 13 19 -10 l-33 -17 38 6 c27 4 37 3 32 -4 -3 -6 -13 -11
-21 -11 -8 0 -14 -4 -14 -10 0 -5 7 -10 16 -10 19 0 75 -45 67 -54 -4 -3 1 -6
9 -6 9 0 21 -7 28 -15 7 -8 16 -15 20 -15 18 0 16 31 -6 120 -13 52 -24 109
-24 127 0 18 -4 33 -8 33 -25 0 -42 245 -45 665 -2 153 1 210 13 244 11 34 12
45 2 49 -7 2 -11 16 -11 30 1 17 3 21 6 9 9 -34 23 -5 24 51 1 45 3 52 10 32
6 -19 8 -13 5 25 -2 28 -1 42 1 33 5 -19 23 -25 23 -7 0 6 -5 19 -11 30 -11
21 7 89 23 89 4 0 8 9 8 21 0 11 4 18 9 14 5 -3 13 0 17 6 4 8 3 9 -4 5 -17
-10 -15 -4 13 60 24 55 28 87 5 45 -6 -12 -16 -18 -22 -15 -6 4 -8 3 -5 -3 4
-6 -11 -42 -34 -79 -56 -96 -56 -95 -72 -134 -41 -95 -50 -151 -44 -279 3 -69
8 -137 11 -151 4 -14 0 -9 -8 10 -8 19 -15 75 -17 125 -2 72 -3 82 -9 50 -7
-38 -5 27 4 125 2 19 1 25 -1 13 -7 -35 -19 -27 -31 20 l-11 42 5 -42 c4 -26
2 -43 -4 -43 -6 0 -13 -15 -16 -32 -2 -18 -3 41 -1 132 3 116 9 183 21 225 19
67 22 307 4 313 -6 2 -10 27 -10 55 -1 46 -16 87 -33 87 -12 0 -19 -130 -8
-161 12 -35 6 -52 -10 -29 -8 11 -9 9 -4 -9 4 -13 3 -26 -2 -30 -15 -9 -24
-59 -13 -66 11 -7 14 -74 3 -101 -6 -16 -7 -16 -13 1 -4 11 -10 -17 -13 -65
-5 -64 -3 -91 8 -113 16 -32 20 -113 6 -121 -4 -3 -6 6 -3 19 2 14 -2 32 -9
41 -13 16 -44 110 -75 224 -8 30 -19 64 -24 75 -14 31 -32 249 -25 300 4 25 4
45 1 45 -8 0 -96 -137 -96 -150 0 -5 -7 -7 -15 -4 -8 4 -15 2 -15 -4 0 -11
-139 -57 -147 -48 -4 3 -1 6 5 6 7 0 12 5 12 11 0 7 -9 9 -21 6 -12 -3 -30 -1
-40 6 -22 14 -40 0 -19 -14 11 -7 8 -8 -10 -2 -37 12 -123 10 -127 -3 -2 -7
15 -14 42 -18 45 -7 58 -24 33 -43 -19 -14 -108 -4 -108 12 0 7 6 15 12 18 7
2 9 8 5 13 -12 13 -28 -18 -24 -47 3 -25 2 -25 -26 -15 -28 11 -28 11 -5 16
15 4 19 8 10 14 -6 4 -12 4 -12 0 0 -3 -6 -1 -14 5 -12 10 -15 7 -18 -16 -3
-25 -7 -28 -45 -31 -37 -3 -43 0 -43 16 0 19 -15 29 -83 56 -40 16 -43 22 -25
61 13 30 8 38 -29 39 -24 1 -28 5 -25 26 1 13 12 35 24 47 24 26 23 28 -13 37
-23 5 -28 2 -33 -19 -5 -18 -13 -25 -31 -25 -36 0 -31 23 7 39 18 7 27 15 21
18 -18 7 -16 23 2 23 21 0 19 27 -2 39 -17 9 -17 11 2 26 11 9 29 20 41 24 19
8 73 104 80 141 2 9 25 61 52 115 27 55 53 111 57 124 6 18 9 21 16 10 7 -9 7
-5 3 14 -3 15 -2 27 3 27 17 0 56 81 45 92 -12 12 -32 2 -32 -17 0 -7 -13 -40
-29 -72 -16 -32 -42 -85 -59 -118 -55 -114 -114 -220 -142 -256 -29 -36 -93
-156 -104 -196 -11 -35 -33 -48 -51 -30 -8 9 -15 20 -15 25 0 6 -13 16 -29 23
-22 10 -31 23 -39 60 -11 48 -6 115 9 125 5 3 12 -9 16 -26 10 -53 23 -13 23
75 0 57 6 96 21 135 12 30 28 75 36 100 8 25 25 68 38 95 13 28 26 61 29 75 3
14 20 41 38 60 18 19 60 88 93 153 33 64 63 117 67 117 3 0 25 18 47 40 22 22
36 40 31 40 -6 0 -10 6 -10 13 0 7 -15 20 -32 28 l-33 14 -3 86 c-3 83 -4 88
-32 109 -17 13 -30 29 -30 36 0 7 -6 11 -12 9 -7 -3 -20 0 -28 5 -13 9 -13 11
0 21 12 8 9 9 -12 5 -25 -6 -28 -4 -29 21 l0 28 -12 -25 c-6 -14 -14 -27 -18
-30 -4 -3 -8 -14 -10 -25 -6 -28 -28 -25 -52 7 -28 38 -25 77 9 116 34 39 51
40 64 6 l10 -26 21 26 c16 20 26 25 46 20 20 -5 30 0 54 29 43 52 62 54 111
16 l41 -33 21 27 c17 21 30 27 62 27 22 0 44 4 50 9 18 17 61 16 136 -5 19 -6
51 45 40 63 -5 7 -97 10 -282 9 -202 -1 -285 3 -312 12 -20 7 -54 14 -75 16
-21 2 -56 6 -78 9 -22 4 -46 4 -52 1z m97 -1754 c0 -5 -4 -10 -10 -10 -5 0
-10 5 -10 10 0 6 5 10 10 10 6 0 10 -4 10 -10z m46 -115 c0 -14 -4 -25 -8 -25
-10 0 -10 13 -2 34 9 23 12 20 10 -9z m754 -51 c-6 -14 -31 -50 -55 -79 -25
-29 -45 -56 -45 -61 0 -5 -21 -32 -46 -59 -25 -28 -43 -45 -40 -39 10 19 -21
37 -51 30 -25 -6 -26 -5 -10 7 9 8 17 19 17 25 0 6 8 16 18 21 12 7 13 10 3
11 -18 0 107 120 125 120 8 0 23 9 34 20 25 25 31 25 23 3 -4 -12 0 -11 11 5
23 29 28 28 16 -4z m-424 -75 c4 -6 21 -8 43 -5 31 6 33 5 16 -6 -11 -6 -25
-19 -32 -27 -6 -9 -15 -13 -19 -8 -4 4 -2 7 4 7 7 0 12 5 12 10 0 6 -6 10 -13
10 -7 0 -22 7 -33 15 -17 13 -17 14 -2 15 9 0 20 -5 24 -11z m430 -186 c-6
-34 -15 -65 -20 -70 -14 -13 3 106 17 122 6 7 13 12 13 11 1 0 -3 -29 -10 -63z
m45 -34 c0 -35 8 -88 17 -116 13 -44 20 -53 40 -53 38 0 54 -55 60 -205 4
-131 -8 -227 -23 -177 -4 12 -13 22 -20 22 -23 0 -44 36 -51 90 -4 30 -11 58
-16 61 -5 3 -10 33 -11 67 -1 34 -5 62 -9 62 -4 0 -5 44 -3 98 2 53 4 126 4
161 1 83 11 74 12 -10z m339 -286 c0 -20 -3 -24 -11 -16 -7 7 -9 19 -6 27 10
24 17 19 17 -11z m-23 -115 c-3 -8 -6 -5 -6 6 -1 11 2 17 5 13 3 -3 4 -12 1
-19z m-1117 -18 c0 -5 -2 -10 -4 -10 -3 0 -8 5 -11 10 -3 6 -1 10 4 10 6 0 11
-4 11 -10z m1029 -111 l24 -30 -22 -6 c-11 -3 -18 -10 -14 -16 3 -6 1 -7 -5
-3 -6 4 -9 13 -6 21 4 9 -4 19 -20 26 -28 13 -33 24 -13 32 23 10 32 6 56 -24z
m-248 -21 c4 -36 -11 -57 -37 -58 -18 0 -25 29 -14 51 12 21 49 26 51 7z
m-176 -195 c-11 -7 -23 -13 -27 -13 -4 0 -27 -13 -49 -30 -23 -16 -46 -27 -51
-24 -5 3 -8 -2 -6 -11 2 -11 -9 -24 -29 -35 -18 -9 -30 -20 -26 -24 3 -3 1 -6
-5 -6 -7 0 -12 4 -12 9 0 12 29 41 41 41 5 0 9 7 9 15 0 8 4 15 9 15 5 0 31
15 59 34 27 19 53 32 57 28 3 -4 11 1 16 11 6 9 15 14 21 11 7 -5 5 -12 -7
-21z m-34 -46 c-6 -8 -8 -17 -4 -20 3 -4 1 -7 -5 -7 -14 0 -14 2 -6 24 3 9 11
16 16 16 7 0 6 -5 -1 -13z m-56 -54 c-1 -16 -8 -27 -15 -25 -7 2 -10 -3 -7
-12 4 -9 1 -19 -6 -23 -7 -5 -27 -25 -45 -46 -17 -21 -32 -35 -32 -32 0 4 -12
-8 -27 -27 -42 -50 -50 -58 -57 -51 -3 4 -6 2 -6 -4 0 -6 -16 -28 -35 -49 -19
-21 -37 -46 -41 -56 -3 -10 -10 -18 -15 -18 -5 0 -23 -15 -39 -32 -17 -18 -27
-25 -24 -15 8 23 -4 21 -25 -4 -10 -12 -23 -20 -30 -18 -8 3 -2 16 18 39 17
19 31 40 31 45 0 6 19 23 41 40 31 23 39 34 35 51 -5 18 0 24 22 32 15 6 21
11 14 11 -9 1 -8 8 5 26 20 27 30 31 36 13 2 -7 3 -4 1 7 -4 27 57 88 80 79 9
-3 16 -1 16 5 0 6 7 11 16 11 8 0 12 5 9 10 -4 6 7 13 24 16 24 5 31 12 31 30
0 14 6 24 14 24 10 0 14 -9 11 -27z m75 -22 c0 -5 -7 -12 -16 -15 -14 -5 -15
-4 -4 9 14 17 20 19 20 6z m47 -33 c-3 -8 -6 -5 -6 6 -1 11 2 17 5 13 3 -3 4
-12 1 -19z m-123 -45 c-31 -42 -79 -96 -107 -123 -11 -10 -15 -24 -11 -36 3
-12 3 -14 -3 -7 -6 8 -12 8 -25 -1 -10 -7 -15 -15 -12 -18 4 -5 -32 -76 -46
-88 -7 -6 -12 -27 -18 -67 -3 -23 -8 -30 -19 -26 -10 4 -13 14 -9 29 5 18 2
24 -11 24 -15 1 -14 3 5 13 12 7 20 16 16 19 -5 6 63 96 131 173 15 17 49 56
77 88 58 65 74 75 32 20z m176 34 c0 -7 -37 -47 -44 -47 -3 0 -6 9 -6 20 0 12
5 17 14 14 8 -3 17 -1 21 5 6 11 15 15 15 8z m-390 -21 c0 -3 -4 -8 -10 -11
-5 -3 -10 -1 -10 4 0 6 5 11 10 11 6 0 10 -2 10 -4z m350 -42 c0 -12 -42 -74
-49 -74 -5 0 -3 18 2 40 8 28 17 40 29 40 10 0 18 -3 18 -6z m43 -14 c-3 -11
-9 -20 -15 -20 -5 0 -4 9 2 20 6 11 12 20 14 20 2 0 2 -9 -1 -20z m-140 -20
c-5 -19 -23 -29 -23 -12 0 7 20 32 26 32 1 0 0 -9 -3 -20z m-48 -10 c3 -5 1
-10 -4 -10 -6 0 -11 5 -11 10 0 6 2 10 4 10 3 0 8 -4 11 -10z m9 -35 c-22 -17
-34 -19 -34 -6 0 5 8 12 18 14 32 9 36 7 16 -8z m73 -52 c-3 -3 -11 -2 -17 2
-8 5 -7 11 2 22 12 15 13 14 16 -1 2 -10 1 -20 -1 -23z m-17 -56 c0 -18 -4
-26 -11 -21 -6 3 -8 17 -5 30 4 14 2 24 -4 24 -6 0 -8 5 -4 11 10 16 24 -10
24 -44z m510 33 c-8 -5 -22 -10 -30 -10 -13 0 -13 1 0 10 8 5 22 10 30 10 13
0 13 -1 0 -10z m-700 -26 c0 -8 -5 -12 -10 -9 -6 4 -8 11 -5 16 9 14 15 11 15
-7z m55 -29 c0 -20 -4 -24 -19 -19 -10 3 -16 2 -14 -2 3 -5 2 -18 -3 -29 -6
-17 -8 -15 -8 11 -1 22 6 36 22 47 12 9 22 16 22 16 0 1 0 -10 0 -24z m-80
-32 c-9 -8 -19 -13 -22 -9 -9 8 18 37 28 30 5 -3 2 -12 -6 -21z m175 17 c0 -5
-5 -10 -11 -10 -5 0 -7 5 -4 10 3 6 8 10 11 10 2 0 4 -4 4 -10z m525 0 c-27
-12 -43 -12 -25 0 8 5 22 9 30 9 10 0 8 -3 -5 -9z m-1050 -10 c3 -6 -1 -7 -9
-4 -18 7 -21 14 -7 14 6 0 13 -4 16 -10z m1155 -30 c-8 -5 -19 -10 -25 -10 -5
0 -3 5 5 10 8 5 20 10 25 10 6 0 3 -5 -5 -10z m-1125 -20 c-3 -5 -13 -10 -21
-10 -8 0 -14 5 -14 10 0 6 9 10 21 10 11 0 17 -4 14 -10z m355 -16 c0 -8 -7
-14 -15 -14 -15 0 -21 21 -9 33 10 9 24 -2 24 -19z m-297 -27 c-3 -5 1 -14 8
-19 10 -7 8 -8 -7 -3 -16 4 -27 -2 -43 -22 -11 -15 -21 -22 -21 -15 0 6 9 21
19 31 10 10 22 29 26 41 5 17 9 19 15 9 5 -7 6 -17 3 -22z m227 18 c0 -8 -2
-15 -4 -15 -2 0 -6 7 -10 15 -3 8 -1 15 4 15 6 0 10 -7 10 -15z m-186 -4 c3
-5 -1 -11 -9 -14 -9 -4 -12 -1 -8 9 6 16 10 17 17 5z m-154 -11 c0 -5 -4 -10
-9 -10 -6 0 -13 5 -16 10 -3 6 1 10 9 10 9 0 16 -4 16 -10z m288 -33 c3 -16 1
-17 -17 -5 -25 16 -27 31 -4 26 10 -2 19 -11 21 -21z m77 12 c4 -6 -2 -19 -14
-30 -12 -11 -21 -25 -21 -32 0 -8 4 -7 10 3 15 24 17 8 4 -30 l-12 -35 -11 25
-11 25 3 -27 c2 -15 1 -27 -2 -26 -30 3 -33 -4 -29 -52 4 -35 1 -53 -8 -61
-11 -9 -14 -8 -14 5 0 9 5 16 12 16 6 0 8 3 4 7 -3 4 -24 6 -46 5 -25 -2 -40
2 -40 9 0 6 7 8 16 5 22 -8 53 20 47 42 -2 10 9 33 26 52 17 19 38 52 48 72
19 39 27 45 38 27z m-442 -46 c-7 -2 -19 -2 -25 0 -7 3 -2 5 12 5 14 0 19 -2
13 -5z m17 -23 c0 -5 -7 -10 -15 -10 -8 0 -15 -4 -15 -9 0 -10 -30 -24 -37
-17 -3 2 4 14 14 25 18 22 53 29 53 11z m-76 -46 c4 -9 4 -19 1 -22 -3 -3 -5
0 -5 7 0 8 -7 11 -15 7 -9 -3 -15 0 -15 9 0 20 26 19 34 -1z m136 1 c0 -8 -7
-15 -16 -15 -14 0 -14 3 -4 15 7 8 14 15 16 15 2 0 4 -7 4 -15z m230 -19 c0
-2 -8 -10 -17 -17 -16 -13 -17 -12 -4 4 13 16 21 21 21 13z m-265 -45 c-6 -5
-25 10 -25 20 0 5 6 4 14 -3 8 -7 12 -15 11 -17z m217 -118 c0 -27 2 -60 2
-74 1 -21 -2 -25 -19 -22 -59 13 -87 48 -43 55 18 2 25 12 32 46 12 56 26 53
28 -5z m-352 -2 c0 -6 -12 -23 -26 -38 l-25 -28 23 37 c24 40 28 44 28 29z
m395 -1 c-3 -5 -10 -10 -16 -10 -5 0 -9 5 -9 10 0 6 7 10 16 10 8 0 12 -4 9
-10z m-117 -92 c13 -28 21 -88 11 -88 -4 0 -10 11 -13 25 -7 26 -25 35 -27 13
-1 -20 -18 25 -18 50 -1 15 5 22 17 22 10 0 24 -10 30 -22z m-148 -238 c0 -5
-4 -10 -10 -10 -5 0 -10 5 -10 10 0 6 5 10 10 10 6 0 10 -4 10 -10z m147 -47
c-3 -10 -5 -4 -5 12 0 17 2 24 5 18 2 -7 2 -21 0 -30z m-127 22 c0 -3 -9 -14
-20 -25 -13 -13 -20 -15 -20 -7 0 7 5 18 12 25 12 12 28 16 28 7z m60 -33
c-29 -5 -51 15 -30 28 10 6 21 3 33 -8 19 -17 19 -17 -3 -20z"/>
<path d="M865 3560 c-3 -5 -1 -10 4 -10 6 0 11 5 11 10 0 6 -2 10 -4 10 -3 0
-8 -4 -11 -10z"/>
<path d="M750 2519 c0 -5 5 -7 10 -4 6 3 10 8 10 11 0 2 -4 4 -10 4 -5 0 -10
-5 -10 -11z"/>
<path d="M525 2280 c-3 -5 -2 -10 4 -10 5 0 13 5 16 10 3 6 2 10 -4 10 -5 0
-13 -4 -16 -10z"/>
<path d="M495 2250 c4 -6 11 -8 16 -5 14 9 11 15 -7 15 -8 0 -12 -5 -9 -10z"/>
<path d="M3420 5611 c0 -6 4 -13 10 -16 6 -3 7 1 4 9 -7 18 -14 21 -14 7z"/>
<path d="M3120 5563 c0 -11 16 -50 35 -88 19 -38 32 -71 29 -74 -3 -3 -9 1
-14 9 -5 8 -11 12 -14 9 -3 -3 4 -18 14 -34 15 -23 20 -25 20 -12 0 10 5 15
10 12 15 -9 13 -48 -2 -39 -7 4 0 -5 15 -21 23 -24 30 -26 38 -15 13 21 11 37
-4 43 -13 5 -107 187 -107 206 0 5 -4 13 -10 16 -5 3 -10 -2 -10 -12z m120
-223 c0 -5 -4 -10 -10 -10 -5 0 -10 5 -10 10 0 6 5 10 10 10 6 0 10 -4 10 -10z"/>
<path d="M3770 5553 c-20 -7 -44 -33 -53 -55 -3 -10 -12 -18 -20 -18 -20 0
-54 -43 -62 -78 -3 -17 -3 -47 1 -66 5 -30 9 -34 20 -25 8 6 14 18 14 27 0 8
12 36 27 61 15 25 26 46 24 46 -12 0 24 55 48 75 41 33 42 48 1 33z"/>
<path d="M3117 5500 c3 -11 7 -20 9 -20 2 0 4 9 4 20 0 11 -4 20 -9 20 -5 0
-7 -9 -4 -20z"/>
<path d="M3465 5510 c3 -5 8 -10 11 -10 2 0 4 5 4 10 0 6 -5 10 -11 10 -5 0
-7 -4 -4 -10z"/>
<path d="M3988 5485 c-2 -3 -28 -9 -57 -15 -29 -5 -59 -17 -67 -25 -9 -8 -26
-18 -39 -21 -14 -4 -30 -20 -40 -42 -9 -21 -26 -54 -36 -75 -20 -40 -17 -62 7
-53 8 3 14 -1 14 -9 0 -22 27 -18 43 5 8 11 16 18 19 15 3 -3 13 4 23 15 18
20 18 21 -1 36 -18 14 -18 15 3 5 29 -14 33 -14 33 4 0 8 4 15 9 15 17 0 22
34 7 46 -21 15 -20 20 4 44 25 25 70 37 71 19 0 -8 5 -3 10 10 9 23 8 36 -3
26z"/>
<path d="M4632 5477 c-9 -10 -7 -20 5 -37 l17 -24 8 29 c11 42 -7 60 -30 32z"/>
<path d="M3481 5464 c0 -11 3 -14 6 -6 3 7 2 16 -1 19 -3 4 -6 -2 -5 -13z"/>
<path d="M4651 5394 c0 -11 3 -14 6 -6 3 7 2 16 -1 19 -3 4 -6 -2 -5 -13z"/>
<path d="M851 5309 c-52 -48 -103 -239 -70 -260 27 -17 39 -9 39 25 0 19 5 38
10 41 6 4 8 10 5 15 -3 4 8 49 25 100 16 50 30 94 30 96 0 10 -18 2 -39 -17z"/>
<path d="M2985 5320 c-3 -5 -1 -10 4 -10 6 0 11 5 11 10 0 6 -2 10 -4 10 -3 0
-8 -4 -11 -10z"/>
<path d="M2940 5242 c0 -12 25 -22 53 -22 17 1 19 2 7 9 -27 16 -60 22 -60 13z"/>
<path d="M3033 5243 c9 -14 71 -43 91 -43 30 0 16 17 -25 29 -23 7 -48 15 -57
18 -9 4 -13 2 -9 -4z"/>
<path d="M4435 5223 c-35 -9 -78 -45 -65 -53 7 -4 9 -13 5 -20 -5 -8 -10 -9
-18 -1 -7 7 -14 5 -23 -7 -18 -23 -17 -37 1 -22 10 8 15 9 15 2 0 -6 -7 -15
-16 -20 -13 -7 -14 -10 0 -21 19 -16 59 -10 116 17 24 11 48 18 54 15 5 -3 6
-2 3 4 -4 6 14 31 38 57 71 74 49 69 -28 -6 -10 -10 -23 -18 -28 -18 -6 0 -8
-7 -5 -16 5 -13 2 -15 -15 -11 -12 3 -30 1 -40 -6 -14 -9 -21 -9 -31 2 -10 10
-10 15 -1 18 7 2 9 11 6 19 -3 9 2 14 16 14 12 0 20 3 20 8 -4 21 3 34 24 42
23 9 6 11 -28 3z"/>
<path d="M1265 5164 c-11 -25 -28 -53 -37 -61 -10 -9 -18 -21 -18 -26 0 -6 -7
-19 -17 -29 -15 -17 -15 -18 5 -18 16 0 22 6 22 21 0 12 16 39 35 60 24 26 35
49 35 69 0 17 -1 30 -2 30 -2 0 -12 -21 -23 -46z"/>
<path d="M2728 5203 c7 -3 16 -2 19 1 4 3 -2 6 -13 5 -11 0 -14 -3 -6 -6z"/>
<path d="M2648 5193 c7 -3 16 -2 19 1 4 3 -2 6 -13 5 -11 0 -14 -3 -6 -6z"/>
<path d="M2784 5185 c19 -14 19 -15 1 -15 -10 0 -16 -3 -12 -6 3 -3 16 -3 28
1 22 7 22 8 4 21 -10 8 -24 14 -29 14 -6 0 -2 -7 8 -15z"/>
<path d="M5430 5169 c0 -19 5 -41 10 -49 7 -10 8 -1 4 30 -8 56 -14 64 -14 19z"/>
<path d="M2728 5173 c6 -2 18 -2 25 0 6 3 1 5 -13 5 -14 0 -19 -2 -12 -5z"/>
<path d="M1342 5140 c0 -14 2 -19 5 -12 2 6 2 18 0 25 -3 6 -5 1 -5 -13z"/>
<path d="M2570 5150 c8 -5 20 -10 25 -10 6 0 3 5 -5 10 -8 5 -19 10 -25 10 -5
0 -3 -5 5 -10z"/>
<path d="M2678 5153 c7 -3 16 -2 19 1 4 3 -2 6 -13 5 -11 0 -14 -3 -6 -6z"/>
<path d="M1899 5128 c-6 -11 -22 -31 -35 -43 -13 -12 -24 -31 -24 -41 0 -12
-13 -25 -33 -34 -19 -9 -31 -22 -31 -32 1 -10 -4 -18 -12 -18 -14 0 -19 -12
-8 -22 9 -10 109 96 106 112 -3 12 -1 13 9 3 18 -18 29 -16 29 6 0 11 14 28
35 40 23 14 33 25 29 36 -9 23 -51 19 -65 -7z"/>
<path d="M2718 5143 c7 -3 16 -2 19 1 4 3 -2 6 -13 5 -11 0 -14 -3 -6 -6z"/>
<path d="M680 5127 c-14 -6 -28 -16 -32 -22 -12 -16 -9 -37 4 -33 7 3 19 -1
26 -9 22 -21 38 -15 49 20 17 55 3 67 -47 44z"/>
<path d="M1620 5125 c-10 -12 -10 -15 4 -15 9 0 16 -7 16 -15 0 -20 26 -19 34
1 7 19 -10 44 -29 44 -7 0 -18 -7 -25 -15z"/>
<path d="M2645 5124 l40 -14 -63 3 c-34 1 -62 -1 -62 -4 0 -14 190 -26 204
-12 3 4 -24 15 -61 25 -79 20 -116 22 -58 2z"/>
<path d="M0 5080 c0 -22 3 -40 8 -40 4 0 6 18 4 40 -2 22 -6 40 -8 40 -2 0 -4
-18 -4 -40z"/>
<path d="M3160 5090 l-45 -7 58 -1 c32 -1 57 2 57 8 0 11 -1 11 -70 0z"/>
<path d="M4465 5090 c3 -5 8 -10 11 -10 2 0 4 5 4 10 0 6 -5 10 -11 10 -5 0
-7 -4 -4 -10z"/>
<path d="M1961 5017 c-17 -30 -31 -66 -31 -80 0 -14 -5 -27 -11 -29 -19 -6
-29 -100 -13 -119 19 -21 18 -35 -1 -19 -9 7 -19 10 -23 6 -4 -4 1 -13 11 -20
24 -19 21 -23 -12 -18 -34 5 -42 -5 -30 -36 6 -17 15 -22 31 -20 13 2 23 10
23 18 0 28 19 40 31 19 9 -19 12 -18 39 13 25 28 30 30 33 15 2 -10 -1 -31 -7
-48 -13 -37 -2 -131 16 -142 10 -6 12 -18 8 -37 -6 -25 -2 -30 30 -46 36 -17
36 -17 64 10 31 30 46 34 37 9 -4 -10 -4 -14 -1 -11 10 10 64 -56 61 -75 -1
-9 -14 -30 -29 -45 -15 -16 -25 -31 -22 -33 3 -3 -24 -34 -60 -68 -36 -35 -65
-67 -65 -72 0 -14 17 -11 34 6 8 8 19 15 25 15 5 0 17 9 25 21 9 13 19 18 27
14 8 -5 10 -4 5 3 -4 7 9 25 30 44 21 18 45 41 53 51 20 22 63 24 55 2 -4 -10
-2 -13 8 -10 7 3 27 -8 43 -25 16 -16 35 -30 42 -30 7 0 22 -13 35 -30 12 -16
29 -30 39 -30 19 0 30 -20 24 -48 -4 -21 24 -26 37 -7 5 6 8 5 8 -4 0 -7 6
-11 15 -7 10 3 5 -13 -15 -48 -32 -56 -35 -66 -22 -66 5 0 21 23 36 50 29 54
41 61 51 31 4 -13 11 -18 22 -14 13 5 15 2 10 -12 -6 -14 -4 -15 5 -8 15 12
58 -1 58 -17 0 -5 7 -10 15 -10 12 0 14 -7 9 -26 -5 -19 -4 -25 5 -20 13 8
-154 -321 -174 -344 -12 -13 -55 -104 -55 -116 0 -14 19 0 31 24 7 15 24 38
37 52 13 13 31 38 39 55 9 16 19 32 22 35 7 6 23 39 52 107 12 29 25 51 29 48
4 -3 7 3 6 13 0 10 5 16 14 14 11 -3 12 -1 3 8 -15 16 26 101 46 94 9 -3 11 1
7 11 -4 13 -2 14 14 5 10 -5 22 -15 26 -22 4 -6 3 -8 -3 -5 -7 4 -11 -2 -11
-16 0 -54 -6 -86 -14 -81 -14 9 -48 -6 -48 -21 0 -8 9 -20 19 -27 19 -14 19
-16 -10 -98 -16 -46 -33 -88 -39 -94 -5 -5 -10 -18 -10 -28 0 -10 -6 -21 -14
-24 -8 -3 -12 -13 -9 -25 3 -10 1 -25 -5 -32 -5 -6 -13 -28 -17 -47 -7 -30 -9
-32 -16 -15 -7 20 -8 20 -8 -1 -1 -11 -4 -24 -8 -28 -5 -4 -9 -11 -9 -14 -7
-33 -18 -50 -30 -45 -8 3 -14 -1 -14 -11 0 -9 5 -16 11 -16 6 0 -5 -14 -25
-32 -20 -17 -36 -37 -36 -42 0 -6 -12 -20 -27 -31 -15 -11 -38 -30 -51 -43
-47 -45 -86 -27 -54 25 13 20 12 23 -12 29 -31 7 -30 5 -11 51 8 20 13 39 10
42 -3 3 -8 -5 -12 -17 -3 -12 -9 -22 -13 -22 -4 0 -14 -15 -22 -32 -9 -18 -42
-86 -74 -151 -55 -111 -59 -123 -58 -187 0 -53 -2 -67 -12 -60 -8 8 -16 -1
-28 -31 -14 -34 -15 -51 -6 -97 5 -31 10 -65 9 -76 0 -21 0 -21 -9 0 -5 12
-13 25 -18 28 -9 5 -6 -15 13 -99 3 -16 2 -41 -4 -55 l-10 -25 0 28 c-1 34
-21 26 -21 -8 0 -12 -6 -25 -12 -28 -9 -3 -13 8 -12 37 1 23 -1 29 -3 14 -2
-16 -8 -28 -14 -28 -5 0 -10 -19 -10 -42 -2 -42 -2 -42 -9 12 -5 30 -9 80 -10
110 -1 41 -4 49 -9 30 -7 -24 -7 -24 -14 9 -4 18 -8 63 -8 100 -2 61 -2 63
-10 26 -5 -25 -6 -5 -3 57 4 66 1 98 -6 103 -11 7 -10 18 6 80 4 15 3 16 -4 6
-7 -10 -11 -1 -13 31 -3 33 -1 44 9 41 7 -3 12 4 12 18 0 20 -2 21 -11 9 -8
-12 -9 -10 -5 10 3 14 9 43 12 65 4 22 12 46 18 54 8 11 8 13 -1 7 -17 -10
-17 -9 11 73 13 39 20 68 15 65 -17 -10 -36 -69 -55 -174 -17 -92 -19 -154
-18 -500 0 -217 3 -422 6 -455 4 -36 3 -50 -2 -35 -4 14 -9 45 -10 70 l-2 45
-8 -34 c-5 -19 -6 -49 -3 -66 5 -33 -10 -55 -23 -34 -4 8 -3 9 4 5 13 -8 14
14 3 53 -6 23 -16 -10 -35 -119 -2 -14 -4 0 -4 30 2 79 -4 148 -9 128 -11 -43
-20 -12 -15 52 3 47 1 75 -8 84 -9 12 -9 43 0 142 14 157 5 183 -14 39 -5 -37
0 67 14 285 11 184 30 341 39 336 3 -2 7 24 8 58 l1 61 -14 -50 c-42 -143 -64
-373 -70 -720 -5 -353 -12 -474 -25 -454 -6 9 -7 4 -3 -16 6 -33 -27 -137 -54
-168 -25 -28 -3 -39 49 -24 67 20 83 17 90 -18 6 -27 7 -26 8 11 1 35 5 43 24
48 13 3 34 14 46 26 13 11 27 17 31 15 4 -3 19 10 33 28 13 18 37 39 53 47 16
8 35 19 43 25 7 5 37 15 65 20 36 8 51 15 51 27 0 9 12 26 27 37 23 19 36 21
97 16 43 -4 72 -2 76 5 9 15 51 12 65 -5 7 -8 8 -15 2 -15 -10 0 -9 -79 3
-147 7 -39 25 -60 25 -30 1 6 9 2 19 -11 14 -15 30 -22 55 -22 20 0 36 5 36
10 0 6 -18 10 -40 10 -23 0 -40 5 -40 11 0 9 53 10 198 6 246 -6 402 -23 420
-45 29 -37 53 37 36 113 -10 43 -20 53 -67 60 -23 3 -53 10 -67 15 -47 18
-212 37 -327 39 -25 1 -33 6 -33 19 0 9 -10 22 -22 27 -13 6 -26 24 -30 43 -5
17 -13 32 -18 32 -6 0 -10 7 -10 15 0 19 -16 19 -23 0 -4 -8 -23 -21 -44 -30
-28 -12 -34 -18 -23 -25 11 -7 12 -11 0 -25 -10 -12 -10 -19 -2 -27 7 -7 12
-19 12 -27 0 -10 -12 -2 -33 21 -21 23 -54 45 -92 59 -54 20 -69 21 -206 15
-130 -6 -147 -5 -153 9 -15 40 -2 115 20 115 8 0 14 7 14 16 0 10 6 14 14 11
10 -4 13 -1 9 9 -3 8 2 20 11 27 8 7 17 22 19 34 4 30 15 39 23 19 3 -9 10
-13 15 -10 5 3 9 1 9 -4 0 -6 12 -13 28 -17 15 -3 35 -13 44 -22 9 -8 36 -17
60 -20 l43 -6 -20 22 -20 23 112 -4 c93 -2 114 0 119 12 14 30 13 48 -1 60
-13 11 -14 10 -8 -6 4 -10 -8 -2 -26 19 -18 20 -39 37 -47 37 -8 0 -14 7 -14
15 0 8 -5 15 -10 15 -6 0 -16 11 -22 25 -13 30 -28 33 -28 6 0 -10 -7 -22 -16
-25 -13 -5 -15 -1 -12 19 4 20 3 23 -8 14 -8 -6 -14 -22 -14 -35 0 -13 -4 -24
-10 -24 -12 0 -2 58 15 85 11 19 31 120 23 120 -1 0 7 11 19 24 l22 24 42 -29
c22 -16 54 -36 70 -44 16 -8 29 -21 29 -27 0 -7 9 -13 19 -13 11 0 23 -5 27
-11 4 -8 -1 -9 -17 -4 -23 8 -23 7 4 -24 15 -18 26 -40 26 -49 -1 -15 -2 -15
-6 -1 -2 9 -14 21 -27 27 -21 9 -23 8 -19 -9 3 -11 15 -26 26 -34 19 -13 22
-13 30 0 4 8 17 15 27 15 24 0 26 26 5 54 -8 11 -15 28 -15 39 0 11 -15 48
-34 82 -30 55 -45 106 -51 168 -1 11 12 31 28 47 29 27 30 50 2 50 -8 0 -19
-8 -24 -17 -8 -14 -10 -10 -10 22 1 50 23 111 39 107 6 -1 9 2 5 8 -3 5 -3 15
1 21 5 8 9 8 14 -1 11 -18 30 -3 30 25 0 13 5 27 10 30 6 3 10 11 10 17 0 7
-4 7 -13 -1 -11 -8 -13 -5 -9 19 2 16 8 27 13 25 4 -3 9 13 11 36 2 31 8 43
21 45 10 1 17 -4 17 -14 0 -13 2 -14 8 -4 6 9 12 5 22 -13 8 -14 20 -23 27
-21 7 3 12 2 11 -2 0 -4 3 -17 8 -30 l10 -23 18 20 c29 32 43 26 38 -14 -3
-29 -1 -35 15 -35 16 0 18 6 15 40 -4 37 -7 40 -33 40 -18 0 -29 5 -29 13 0 8
-9 22 -19 31 -16 14 -19 30 -18 91 1 41 3 72 6 70 2 -3 10 0 18 6 14 13 123
40 132 34 3 -1 7 10 8 26 1 19 -3 32 -12 36 -21 7 -47 -17 -42 -39 5 -19 -14
-22 -76 -11 l-27 5 27 39 c16 21 34 37 41 34 6 -2 12 2 12 10 0 8 -4 15 -10
15 -5 0 -10 7 -10 16 0 10 -5 14 -16 10 -8 -3 -12 -2 -9 4 3 6 13 10 22 10 9
0 13 3 10 7 -4 3 -2 12 4 20 12 13 -4 18 -41 13 -10 -1 -12 2 -5 8 12 12 89
32 135 37 39 3 144 -12 169 -25 9 -4 57 -22 106 -40 124 -43 167 -67 193 -107
13 -18 34 -38 48 -44 l26 -9 -6 -103 c-4 -56 -9 -114 -12 -129 -3 -17 -1 -28
5 -28 6 0 11 12 11 26 0 14 4 23 10 19 6 -3 10 3 10 14 0 12 4 21 9 21 13 0
30 -123 19 -137 -6 -8 -7 -32 -4 -58 6 -39 5 -45 -11 -45 -11 0 -14 -3 -7 -8
6 -4 14 -24 18 -46 6 -32 5 -38 -7 -33 -12 5 -14 0 -7 -22 4 -17 4 -34 -2 -42
-8 -11 -9 -10 -4 4 3 9 1 17 -4 17 -6 0 -10 -13 -10 -29 0 -25 3 -28 23 -24
12 3 29 11 37 18 56 46 254 115 331 115 50 0 154 -24 175 -41 33 -27 19 33
-28 118 -26 46 -150 194 -195 233 -184 158 -352 242 -788 393 -49 17 -130 50
-180 73 -49 23 -127 59 -172 79 -46 21 -83 43 -83 47 0 5 -3 7 -7 5 -5 -3 -24
11 -43 30 l-35 34 115 -52 c150 -67 311 -131 316 -127 2 3 -29 17 -69 33 -79
30 -276 118 -319 141 -14 8 -31 14 -36 14 -14 0 -136 72 -156 93 -24 24 -15
21 49 -14 31 -17 59 -28 62 -26 3 3 -19 18 -49 33 -29 14 -55 31 -56 35 -2 5
-8 7 -13 3 -5 -3 -36 15 -68 41 -80 61 -91 73 -85 90 7 16 30 20 36 7 4 -11
216 -140 295 -180 71 -36 312 -126 320 -119 2 3 -13 11 -34 17 -110 36 -281
110 -380 167 -111 64 -149 93 -102 78 22 -7 22 -7 5 10 -14 15 -19 16 -26 5
-7 -11 -15 -8 -42 11 -39 30 -68 42 -68 29 0 -6 -7 -10 -15 -10 -8 0 -15 4
-15 9 0 5 -3 18 -6 28 -5 16 -4 16 11 -2 11 -13 19 -16 22 -8 3 7 18 3 46 -13
26 -14 47 -20 56 -15 9 6 10 11 2 15 -6 4 -15 4 -21 1 -5 -3 -7 0 -4 9 4 11 0
13 -18 10 -19 -5 -20 -4 -6 5 13 9 25 6 53 -13 20 -14 46 -28 57 -32 12 -3 44
-21 72 -39 28 -18 62 -36 76 -40 14 -4 34 -13 45 -19 46 -29 379 -133 475
-149 l35 -6 -35 10 c-19 6 -60 19 -90 29 -30 11 -100 31 -155 45 -102 27 -110
30 -230 85 -84 38 -263 138 -271 152 -3 5 -12 4 -22 -4 -12 -10 -16 -10 -19 0
-3 6 -11 12 -18 12 -7 0 -16 -6 -18 -12 -4 -10 -6 -10 -6 0 -1 6 -1 15 0 18 0
7 -47 44 -58 44 -4 0 -14 9 -21 21 -9 13 9 5 54 -25 59 -41 84 -53 84 -42 0 2
-30 24 -67 49 -118 79 -199 145 -189 154 3 4 16 -3 29 -15 13 -12 28 -22 35
-22 6 0 21 -10 34 -23 13 -13 58 -48 101 -78 257 -178 402 -247 662 -314 54
-14 104 -25 110 -24 18 1 -67 29 -165 54 -120 31 -207 63 -318 119 -80 41
-181 101 -208 125 -7 5 -46 33 -88 61 -42 28 -76 55 -76 59 0 5 -14 14 -30 21
-17 7 -36 20 -43 30 -17 23 -42 31 -57 17 -10 -10 -12 -7 -7 10 3 12 -1 27 -8
33 -29 24 -42 197 -17 222 11 11 12 8 7 -15 -5 -16 -2 -33 5 -42 7 -8 10 -15
6 -15 -13 0 24 -58 59 -94 19 -20 35 -40 36 -44 0 -6 95 -88 189 -164 14 -11
54 -37 90 -58 51 -29 79 -38 130 -43 51 -4 57 -3 28 4 -21 5 -55 13 -75 18
-26 6 21 8 142 6 171 -4 175 -3 69 6 -151 12 -179 25 -46 21 59 -2 148 1 197
6 l90 9 -145 3 -145 3 155 13 c85 7 171 18 190 23 l35 10 -35 -4 c-83 -11
-372 -16 -455 -7 -84 8 -77 9 95 9 169 0 415 23 430 40 3 3 -17 3 -45 -1 -226
-30 -471 -30 -625 0 -89 18 -113 24 -108 30 3 2 36 -3 74 -11 87 -19 360 -29
439 -17 51 8 35 9 -105 10 -91 0 -197 6 -235 12 -86 13 -195 39 -215 51 -17
10 -6 9 105 -17 87 -20 360 -30 395 -15 22 9 20 10 -15 5 -62 -9 -297 13 -388
37 -146 37 -187 50 -181 60 4 7 10 7 17 0 41 -33 354 -84 398 -65 19 9 2 12
-81 17 -110 7 -258 41 -332 77 -23 11 -47 20 -54 20 -18 0 -66 80 -61 100 3
11 -5 27 -18 40 l-23 21 -31 -54z m154 -137 c13 -6 15 -9 5 -9 -8 0 -22 4 -30
9 -18 12 -2 12 25 0z m142 -126 c-3 -3 -12 -4 -19 -1 -8 3 -5 6 6 6 11 1 17
-2 13 -5z m162 -70 c9 -8 -65 -2 -84 7 -13 6 -4 7 30 3 28 -4 52 -8 54 -10z
m515 -723 c3 -5 -8 -11 -24 -13 -24 -4 -27 -2 -19 9 13 15 35 17 43 4z m-64
-21 c0 -5 -5 -10 -11 -10 -5 0 -7 5 -4 10 3 6 8 10 11 10 2 0 4 -4 4 -10z
m-87 -403 c3 -8 2 -19 -3 -26 -5 -9 -9 -4 -12 13 -5 27 6 36 15 13z m-423
-317 c0 -5 -9 -6 -20 -3 -11 3 -20 9 -20 13 0 5 9 6 20 3 11 -3 20 -9 20 -13z
m-30 -14 c0 -3 -4 -8 -10 -11 -5 -3 -10 -1 -10 4 0 6 5 11 10 11 6 0 10 -2 10
-4z m20 -50 c0 -2 -7 -6 -15 -10 -8 -3 -15 -1 -15 4 0 6 7 10 15 10 8 0 15 -2
15 -4z m-363 -258 c-2 -13 -4 -3 -4 22 0 25 2 35 4 23 2 -13 2 -33 0 -45z
m520 36 c-3 -3 -12 -4 -19 -1 -8 3 -5 6 6 6 11 1 17 -2 13 -5z m-280 -26 c-3
-8 -6 -5 -6 6 -1 11 2 17 5 13 3 -3 4 -12 1 -19z m33 -68 c0 -5 -2 -10 -4 -10
-3 0 -8 5 -11 10 -3 6 -1 10 4 10 6 0 11 -4 11 -10z m-238 -244 c-6 -48 -12
-46 -12 5 0 22 4 38 8 35 4 -3 6 -21 4 -40z m388 40 c0 -3 -4 -8 -10 -11 -5
-3 -10 -1 -10 4 0 6 5 11 10 11 6 0 10 -2 10 -4z m-173 -68 c-3 -8 -6 -5 -6 6
-1 11 2 17 5 13 3 -3 4 -12 1 -19z m-390 -175 c-3 -10 -5 -2 -5 17 0 19 2 27
5 18 2 -10 2 -26 0 -35z"/>
<path d="M1238 5035 c-6 -29 10 -45 23 -24 13 21 11 49 -5 49 -7 0 -16 -11
-18 -25z"/>
<path d="M3198 5053 c6 -2 18 -2 25 0 6 3 1 5 -13 5 -14 0 -19 -2 -12 -5z"/>
<path d="M3068 5043 c18 -2 45 -2 60 0 15 2 0 4 -33 4 -33 0 -45 -2 -27 -4z"/>
<path d="M1539 5000 c-1 -22 -2 -46 -3 -52 -2 -19 43 -22 50 -4 3 9 12 16 20
16 17 0 17 5 2 47 -10 27 -17 33 -40 33 -26 0 -28 -3 -29 -40z"/>
<path d="M2923 5033 c15 -2 37 -2 50 0 12 2 0 4 -28 4 -27 0 -38 -2 -22 -4z"/>
<path d="M746 4973 c-8 -26 -18 -66 -22 -88 -6 -34 -8 -36 -15 -17 -5 12 -6
29 -3 37 9 23 -13 18 -31 -7 -9 -14 -11 -24 -5 -26 5 -2 10 -8 10 -13 0 -4 -6
-6 -12 -4 -16 6 -145 -98 -215 -172 -29 -31 -53 -58 -53 -60 0 -2 14 4 30 12
17 9 35 13 40 10 5 -3 21 12 37 32 38 52 63 78 63 68 0 -4 9 0 20 10 11 10 20
14 20 8 0 -5 -10 -18 -21 -29 -51 -45 -100 -117 -94 -138 5 -15 4 -17 -3 -7
-8 11 -12 9 -23 -10 -7 -13 -13 -27 -14 -31 0 -4 -8 -17 -18 -29 -33 -38 -7
-33 34 7 26 25 38 32 33 19 -4 -11 -14 -26 -21 -34 -8 -7 -12 -16 -9 -19 7 -7
46 28 46 41 0 31 94 201 131 237 38 36 62 47 60 27 -1 -4 -1 -16 -1 -27 0 -11
-5 -20 -11 -20 -6 0 -9 9 -6 20 6 24 -8 27 -17 4 -4 -10 1 -25 10 -35 19 -22
13 -25 -15 -7 -21 13 -38 1 -61 -42 -10 -21 -10 -23 1 -12 18 17 64 15 83 -3
17 -17 26 -19 26 -5 0 12 32 50 42 50 3 0 8 -10 10 -22 4 -29 45 -38 55 -12 7
19 -21 45 -42 38 -20 -8 -27 13 -7 21 26 12 91 14 98 4 3 -5 14 -9 25 -9 16 0
19 -7 20 -42 l0 -43 17 33 c15 31 18 33 67 30 47 -3 50 -4 48 -30 -1 -20 2
-25 13 -21 9 3 12 0 9 -9 -8 -21 17 -49 34 -39 12 8 12 13 -3 35 -9 14 -21 38
-26 52 -8 21 -7 25 8 23 32 -3 35 1 17 21 -20 22 -51 28 -39 8 4 -7 -2 -5 -14
6 -11 10 -27 16 -34 13 -8 -3 -5 -6 6 -6 11 -1 17 -4 14 -7 -8 -8 -78 7 -78
16 0 5 6 10 13 13 6 2 1 2 -12 0 -13 -2 -32 3 -42 13 -10 9 -42 19 -71 22 -47
4 -50 6 -28 15 l25 11 -27 4 c-16 2 -28 8 -28 13 0 11 87 12 92 1 2 -5 20 -12
41 -15 47 -7 52 16 5 29 -17 5 -33 16 -35 24 -3 10 -2 11 4 4 10 -13 60 -28
88 -26 14 1 16 0 5 -5 -9 -4 7 -11 40 -18 57 -11 88 -3 69 18 -5 7 -18 24 -30
40 -11 15 -30 27 -42 27 -33 1 -119 34 -117 45 4 23 -105 35 -113 13 -3 -10
-7 -10 -19 0 -14 11 -18 7 -32 -35z m101 -19 c-3 -3 -12 -4 -19 -1 -8 3 -5 6
6 6 11 1 17 -2 13 -5z m33 -34 c0 -5 -5 -10 -11 -10 -5 0 -7 5 -4 10 3 6 8 10
11 10 2 0 4 -4 4 -10z m-145 -198 c-3 -3 -11 0 -18 7 -9 10 -8 11 6 5 10 -3
15 -9 12 -12z"/>
<path d="M636 4994 c-12 -30 -6 -36 19 -20 27 18 32 8 15 -25 -7 -13 -7 -19
-1 -19 6 0 18 14 27 31 13 26 14 33 2 40 -21 14 -55 10 -62 -7z"/>
<path d="M1018 4963 c7 -3 16 -2 19 1 4 3 -2 6 -13 5 -11 0 -14 -3 -6 -6z"/>
<path d="M2077 4950 c3 -11 13 -20 22 -20 9 0 21 -4 27 -9 25 -23 194 -68 194
-52 0 5 -19 12 -42 16 -40 6 -70 15 -110 36 -10 5 -23 9 -29 9 -6 0 -24 9 -39
20 l-28 20 5 -20z"/>
<path d="M2150 4960 c8 -5 20 -10 25 -10 6 0 3 5 -5 10 -8 5 -19 10 -25 10 -5
0 -3 -5 5 -10z"/>
<path d="M3210 4933 c60 -11 40 -23 -40 -24 -67 0 -80 -2 -60 -10 24 -10 74
-8 195 8 70 10 51 19 -55 26 -36 2 -54 2 -40 0z"/>
<path d="M2995 4920 c11 -5 36 -8 55 -8 32 0 33 1 10 8 -14 4 -38 8 -55 8 -25
1 -27 -1 -10 -8z"/>
<path d="M1236 4901 c-5 -13 -4 -27 3 -34 16 -16 21 -4 12 29 -8 29 -8 29 -15
5z"/>
<path d="M2800 4910 c0 -8 61 -20 105 -20 17 0 25 4 20 9 -12 11 -125 20 -125
11z"/>
<path d="M1627 4885 c-13 -12 -14 -21 -7 -36 13 -23 18 -23 58 -3 32 15 44 44
20 44 -7 0 -22 3 -34 6 -13 3 -28 -1 -37 -11z"/>
<path d="M1204 4859 c-3 -6 -1 -16 5 -22 8 -8 11 -5 11 11 0 24 -5 28 -16 11z"/>
<path d="M3013 4853 c9 -2 25 -2 35 0 9 3 1 5 -18 5 -19 0 -27 -2 -17 -5z"/>
<path d="M1013 4844 c11 -3 27 -13 37 -22 49 -44 63 -51 74 -34 9 15 -49 50
-90 56 -22 3 -31 3 -21 0z"/>
<path d="M1180 4827 c0 -7 -9 -20 -20 -30 -13 -10 -18 -22 -13 -30 5 -9 9 -7
11 6 2 9 10 17 18 17 8 0 12 -4 9 -10 -7 -12 15 -47 30 -48 10 0 9 -41 -1 -94
-6 -32 12 -106 32 -125 8 -8 14 -25 14 -39 0 -13 5 -44 12 -68 l12 -45 11 33
c6 18 10 46 9 62 -7 73 -24 156 -33 168 -5 6 -13 53 -17 104 -6 85 -17 108
-26 58 -7 -39 -28 -29 -28 13 0 23 -4 41 -10 41 -5 0 -10 -6 -10 -13z"/>
<path d="M1271 4794 c-1 -39 27 -124 48 -147 16 -16 17 -16 19 5 2 29 -17 91
-32 100 -6 4 -16 22 -23 40 l-11 33 -1 -31z"/>
<path d="M442 4758 c-13 -13 -16 -48 -4 -48 14 0 32 23 32 42 0 21 -11 23 -28
6z"/>
<path d="M1115 4760 c3 -5 8 -10 11 -10 2 0 4 5 4 10 0 6 -5 10 -11 10 -5 0
-7 -4 -4 -10z"/>
<path d="M2863 4733 c9 -2 23 -2 30 0 6 3 -1 5 -18 5 -16 0 -22 -2 -12 -5z"/>
<path d="M850 4629 c-58 -80 -97 -112 -126 -105 -18 5 -31 -4 -63 -40 -23 -26
-41 -51 -41 -56 0 -6 -6 -8 -14 -5 -10 4 -18 -8 -26 -39 -7 -24 -16 -41 -21
-38 -5 3 -9 -2 -9 -11 0 -9 -7 -27 -16 -40 -9 -14 -14 -32 -10 -40 3 -9 2 -13
-4 -10 -6 3 -10 -5 -10 -19 0 -14 -5 -28 -10 -31 -6 -4 -10 -14 -9 -23 3 -35
-3 -46 -12 -22 -8 23 -8 23 -6 -6 2 -23 0 -31 -10 -27 -7 3 -13 -2 -13 -11 0
-9 -4 -16 -10 -16 -5 0 -10 -6 -10 -13 0 -8 -9 -24 -20 -37 -11 -13 -20 -27
-20 -32 0 -13 18 -10 22 4 3 7 15 13 28 13 24 0 39 19 81 103 12 23 25 45 30
48 5 3 9 12 9 20 0 8 -4 12 -10 9 -5 -3 -10 -2 -10 4 0 5 6 11 14 13 14 3 66
67 136 167 19 28 43 51 52 51 9 0 26 12 37 26 12 15 21 22 21 15 0 -6 4 -11 9
-11 5 0 7 9 4 20 -3 11 -1 20 5 20 6 0 12 -12 14 -27 3 -30 35 -44 48 -23 6 9
11 7 19 -9 12 -22 31 -29 31 -10 0 14 -25 39 -39 39 -16 0 -13 15 4 30 21 17
19 50 -2 50 -17 1 -17 1 0 11 21 12 22 35 2 42 -11 5 -12 12 -3 37 17 50 5 44
-42 -21z m-333 -461 c-3 -8 -6 -5 -6 6 -1 11 2 17 5 13 3 -3 4 -12 1 -19z"/>
<path d="M833 4655 c-9 -25 4 -29 17 -6 7 15 7 21 0 21 -6 0 -13 -7 -17 -15z"/>
<path d="M2943 4633 c9 -2 25 -2 35 0 9 3 1 5 -18 5 -19 0 -27 -2 -17 -5z"/>
<path d="M4790 4630 c-8 -5 -10 -10 -5 -10 6 0 17 5 25 10 8 5 11 10 5 10 -5
0 -17 -5 -25 -10z"/>
<path d="M1351 4621 c-19 -12 -6 -43 16 -39 21 4 31 48 11 48 -7 0 -19 -4 -27
-9z"/>
<path d="M1613 4614 c-9 -23 13 -40 32 -24 8 7 15 19 15 26 0 19 -39 18 -47
-2z"/>
<path d="M2968 4603 c7 -3 16 -2 19 1 4 3 -2 6 -13 5 -11 0 -14 -3 -6 -6z"/>
<path d="M351 4574 c0 -11 3 -14 6 -6 3 7 2 16 -1 19 -3 4 -6 -2 -5 -13z"/>
<path d="M2898 4533 c12 -2 32 -2 45 0 12 2 2 4 -23 4 -25 0 -35 -2 -22 -4z"/>
<path d="M2548 4523 c7 -3 16 -2 19 1 4 3 -2 6 -13 5 -11 0 -14 -3 -6 -6z"/>
<path d="M2673 4523 c32 -2 81 -2 110 0 29 2 3 3 -58 3 -60 0 -84 -1 -52 -3z"/>
<path d="M2938 4503 c7 -3 16 -2 19 1 4 3 -2 6 -13 5 -11 0 -14 -3 -6 -6z"/>
<path d="M2633 4493 c9 -2 23 -2 30 0 6 3 -1 5 -18 5 -16 0 -22 -2 -12 -5z"/>
<path d="M2758 4493 c23 -2 61 -2 85 0 23 2 4 4 -43 4 -47 0 -66 -2 -42 -4z"/>
<path d="M2340 4469 c-12 -9 -12 -10 4 -5 12 4 42 -7 85 -31 36 -21 89 -49
116 -63 28 -14 52 -27 55 -30 20 -20 367 -126 378 -116 2 3 -29 14 -70 26 -40
11 -104 30 -143 41 -75 22 -218 88 -327 150 -73 43 -76 44 -98 28z"/>
<path d="M400 4440 c0 -27 3 -31 23 -28 16 2 22 10 22 28 0 18 -6 26 -22 28
-20 3 -23 -1 -23 -28z"/>
<path d="M1550 4450 c-11 -11 -20 -32 -20 -46 0 -14 -4 -23 -9 -19 -5 3 -12 1
-15 -4 -9 -14 11 -23 34 -16 15 5 20 15 20 41 0 22 6 37 15 41 24 9 30 -5 12
-25 -23 -25 -22 -52 3 -52 25 0 46 36 31 54 -6 8 -9 21 -5 30 9 24 -41 21 -66
-4z"/>
<path d="M2808 4463 c23 -2 61 -2 85 0 23 2 4 4 -43 4 -47 0 -66 -2 -42 -4z"/>
<path d="M2240 4455 c0 -5 61 -45 126 -81 71 -40 51 -20 -36 35 -80 50 -90 56
-90 46z"/>
<path d="M807 4430 c3 -11 7 -20 9 -20 2 0 4 9 4 20 0 11 -4 20 -9 20 -5 0 -7
-9 -4 -20z"/>
<path d="M521 4414 c0 -11 3 -14 6 -6 3 7 2 16 -1 19 -3 4 -6 -2 -5 -13z"/>
<path d="M2403 4423 c14 -23 217 -128 301 -157 72 -25 67 -12 -6 15 -64 24
-86 35 -223 110 -43 23 -75 38 -72 32z"/>
<path d="M1170 4391 c0 -17 4 -33 10 -36 11 -7 25 39 15 54 -12 21 -25 11 -25
-18z"/>
<path d="M2678 4413 c7 -3 16 -2 19 1 4 3 -2 6 -13 5 -11 0 -14 -3 -6 -6z"/>
<path d="M2725 4400 c27 -12 43 -12 25 0 -8 5 -22 9 -30 9 -10 0 -8 -3 5 -9z"/>
<path d="M2790 4379 c42 -18 243 -69 270 -68 l25 2 -25 4 c-14 3 -74 18 -135
34 -60 16 -121 31 -135 34 l-25 6 25 -12z"/>
<path d="M4230 4362 c0 -10 18 -38 40 -62 22 -24 43 -52 46 -62 3 -10 12 -18
20 -18 8 0 14 -6 14 -13 0 -7 14 -21 30 -30 17 -10 30 -24 30 -31 0 -16 38
-51 46 -43 13 13 -20 68 -59 100 -70 56 -124 111 -141 145 -19 36 -26 40 -26
14z"/>
<path d="M2998 4363 c7 -3 16 -2 19 1 4 3 -2 6 -13 5 -11 0 -14 -3 -6 -6z"/>
<path d="M6560 4344 c0 -8 5 -12 10 -9 6 4 8 11 5 16 -9 14 -15 11 -15 -7z"/>
<path d="M1290 4324 c0 -8 5 -12 10 -9 6 4 8 11 5 16 -9 14 -15 11 -15 -7z"/>
<path d="M1332 4318 c2 -15 10 -23 23 -23 30 0 27 39 -3 43 -20 3 -23 0 -20
-20z"/>
<path d="M6560 4295 c0 -14 0 -27 0 -30 0 -3 3 -6 6 -7 4 -2 8 12 9 30 2 17
-1 32 -6 32 -5 0 -9 -11 -9 -25z"/>
<path d="M3105 4300 c11 -5 27 -9 35 -9 9 0 8 4 -5 9 -11 5 -27 9 -35 9 -9 0
-8 -4 5 -9z"/>
<path d="M3038 4273 c7 -3 16 -2 19 1 4 3 -2 6 -13 5 -11 0 -14 -3 -6 -6z"/>
<path d="M401 4260 c0 -8 4 -22 9 -30 12 -18 12 -2 0 25 -6 13 -9 15 -9 5z"/>
<path d="M1771 4260 c-17 -10 -7 -40 14 -40 8 0 15 9 15 19 0 24 -12 32 -29
21z"/>
<path d="M6610 4260 c0 -5 4 -10 9 -10 6 0 13 5 16 10 3 6 -1 10 -9 10 -9 0
-16 -4 -16 -10z"/>
<path d="M1007 4243 c-10 -12 -13 -23 -7 -32 7 -12 13 -12 35 3 14 9 24 23 22
29 -6 19 -32 19 -50 0z"/>
<path d="M2520 4256 c0 -5 68 -38 155 -76 11 -5 46 -20 79 -34 60 -27 104 -36
51 -11 -25 12 -234 105 -272 122 -7 3 -13 2 -13 -1z"/>
<path d="M2824 4229 c32 -11 60 -18 63 -15 5 5 -93 36 -111 35 -6 0 15 -9 48
-20z"/>
<path d="M6560 4220 c0 -5 5 -10 10 -10 6 0 10 5 10 10 0 6 -4 10 -10 10 -5 0
-10 -4 -10 -10z"/>
<path d="M6610 4214 c0 -8 5 -12 10 -9 6 3 10 10 10 16 0 5 -4 9 -10 9 -5 0
-10 -7 -10 -16z"/>
<path d="M2720 4204 c0 -7 91 -46 96 -42 2 2 -19 14 -46 25 -28 12 -50 19 -50
17z"/>
<path d="M2910 4200 c8 -5 22 -10 30 -10 13 0 13 1 0 10 -8 5 -22 10 -30 10
-13 0 -13 -1 0 -10z"/>
<path d="M3068 4188 c5 -5 16 -8 23 -6 8 3 3 7 -10 11 -17 4 -21 3 -13 -5z"/>
<path d="M257 4183 c-10 -9 -9 -53 1 -53 14 0 32 23 32 42 0 18 -20 25 -33 11z"/>
<path d="M6605 4170 c-3 -5 1 -10 10 -10 9 0 13 5 10 10 -3 6 -8 10 -10 10 -2
0 -7 -4 -10 -10z"/>
<path d="M3025 4160 c27 -12 43 -12 25 0 -8 5 -22 9 -30 9 -10 0 -8 -3 5 -9z"/>
<path d="M4210 4154 c0 -8 5 -12 10 -9 6 3 10 10 10 16 0 5 -4 9 -10 9 -5 0
-10 -7 -10 -16z"/>
<path d="M1586 4144 c-9 -22 1 -33 24 -27 26 7 27 43 1 43 -10 0 -22 -7 -25
-16z"/>
<path d="M4140 4145 c0 -8 5 -15 10 -15 6 0 10 5 10 11 0 5 5 7 10 4 6 -3 10
-1 10 4 0 6 -9 11 -20 11 -11 0 -20 -7 -20 -15z"/>
<path d="M2890 4131 c19 -10 46 -21 60 -25 14 -3 1 5 -29 19 -62 29 -83 33
-31 6z"/>
<path d="M3078 4143 c7 -3 16 -2 19 1 4 3 -2 6 -13 5 -11 0 -14 -3 -6 -6z"/>
<path d="M2995 4133 c10 -10 85 -34 101 -32 9 0 -40 20 -86 34 -16 4 -21 4
-15 -2z"/>
<path d="M5160 4125 c-94 -26 -193 -88 -128 -81 60 7 89 18 84 32 -3 7 -2 13
2 12 9 -2 92 40 92 47 0 3 -1 4 -2 4 -2 -1 -23 -7 -48 -14z"/>
<path d="M770 4116 c14 -8 27 -12 29 -10 6 6 -1 11 -29 18 l-25 7 25 -15z"/>
<path d="M6605 4120 c3 -5 8 -10 11 -10 2 0 4 5 4 10 0 6 -5 10 -11 10 -5 0
-7 -4 -4 -10z"/>
<path d="M2850 4110 c8 -5 22 -9 30 -9 10 0 8 3 -5 9 -27 12 -43 12 -25 0z"/>
<path d="M4200 4110 c0 -5 5 -10 10 -10 6 0 10 5 10 10 0 6 -4 10 -10 10 -5 0
-10 -4 -10 -10z"/>
<path d="M1360 4097 c0 -8 -6 -17 -14 -20 -45 -17 -43 -280 3 -327 12 -12 13
-8 7 35 -4 28 -12 52 -17 53 -14 5 -11 50 4 59 7 4 20 31 29 58 14 44 14 51 2
62 -9 6 -11 14 -5 17 12 8 11 65 -1 72 -4 3 -8 -1 -8 -9z"/>
<path d="M734 4085 c-9 -23 3 -45 25 -45 25 0 34 14 26 40 -7 23 -43 27 -51 5z"/>
<path d="M2988 4093 c7 -3 16 -2 19 1 4 3 -2 6 -13 5 -11 0 -14 -3 -6 -6z"/>
<path d="M4973 4080 c-36 -21 -49 -40 -37 -49 5 -3 15 -18 22 -34 15 -34 77
-66 94 -49 9 9 8 12 -5 12 -10 0 -29 8 -43 17 -23 15 -25 21 -20 57 4 22 12
44 19 48 6 4 9 9 6 12 -3 3 -19 -3 -36 -14z"/>
<path d="M3030 4081 c8 -4 29 -11 45 -15 19 -4 25 -3 15 3 -8 4 -28 11 -45 15
-19 4 -25 3 -15 -3z"/>
<path d="M3148 4083 c7 -3 16 -2 19 1 4 3 -2 6 -13 5 -11 0 -14 -3 -6 -6z"/>
<path d="M6600 4080 c-13 -8 -12 -10 3 -10 9 0 17 5 17 10 0 12 -1 12 -20 0z"/>
<path d="M4297 4048 c-9 -33 -44 -68 -69 -68 -15 0 -17 -6 -12 -42 3 -24 5
-53 5 -65 -1 -37 15 -26 33 22 14 37 22 45 43 45 20 0 23 -4 18 -20 -8 -26 2
-25 24 2 17 20 21 21 62 10 88 -23 169 -34 201 -28 18 4 53 11 78 15 42 8 40
8 -35 11 -44 1 -102 1 -130 1 -61 -1 -148 28 -177 59 -12 12 -24 36 -28 54
l-6 31 -7 -27z m3 -82 c0 -3 -4 -8 -10 -11 -5 -3 -10 -1 -10 4 0 6 5 11 10 11
6 0 10 -2 10 -4z"/>
<path d="M3002 4054 c6 -6 207 -74 217 -74 14 1 -31 20 -116 49 -93 31 -111
36 -101 25z"/>
<path d="M3148 4043 c7 -3 16 -2 19 1 4 3 -2 6 -13 5 -11 0 -14 -3 -6 -6z"/>
<path d="M3215 4020 c27 -12 43 -12 25 0 -8 5 -22 9 -30 9 -10 0 -8 -3 5 -9z"/>
<path d="M3059 3990 c41 -16 88 -32 105 -35 17 -3 -11 10 -63 30 -51 19 -99
35 -105 35 -6 -1 22 -14 63 -30z"/>
<path d="M2480 3999 c0 -5 5 -7 10 -4 6 3 10 8 10 11 0 2 -4 4 -10 4 -5 0 -10
-5 -10 -11z"/>
<path d="M3268 4003 c7 -3 16 -2 19 1 4 3 -2 6 -13 5 -11 0 -14 -3 -6 -6z"/>
<path d="M3941 3935 c-1 -37 4 -66 11 -73 10 -10 10 -15 -1 -22 -13 -7 -13
-14 1 -47 9 -21 23 -65 31 -98 8 -33 27 -105 42 -160 62 -227 85 -321 85 -340
0 -25 18 -45 39 -45 12 0 12 3 3 12 -7 7 -12 19 -11 28 0 10 3 9 8 -5 6 -13 8
-1 8 37 -1 31 -4 56 -7 56 -23 -2 -32 4 -27 21 3 12 -1 22 -10 25 -11 4 -13
14 -8 36 4 20 3 30 -5 30 -8 0 -10 8 -7 21 3 13 -1 28 -9 37 -8 8 -13 21 -10
28 3 7 -2 18 -11 22 -10 6 -14 17 -11 30 4 13 0 23 -8 26 -10 4 -11 12 -4 30
7 18 5 26 -5 30 -8 3 -12 12 -9 20 3 9 -1 23 -10 32 -9 8 -14 20 -10 25 3 6 0
16 -6 24 -7 8 -10 22 -6 30 3 8 1 15 -5 15 -7 0 -8 12 -4 30 7 30 -8 43 -19
18 -3 -7 -2 0 1 17 4 16 5 34 4 40 -1 5 -3 21 -5 35 -2 14 -6 32 -9 40 -3 8
-8 24 -10 35 -3 11 -5 -7 -6 -40z"/>
<path d="M3270 3960 c8 -5 20 -10 25 -10 6 0 3 5 -5 10 -8 5 -19 10 -25 10 -5
0 -3 -5 5 -10z"/>
<path d="M4170 3954 c0 -8 5 -12 10 -9 6 4 8 11 5 16 -9 14 -15 11 -15 -7z"/>
<path d="M1095 3949 c-11 -4 -34 -8 -52 -8 -43 -1 -68 -11 -53 -21 18 -11 -24
-50 -54 -50 -25 0 -39 -19 -27 -38 8 -14 101 -5 101 9 0 5 7 9 15 9 8 0 15 4
15 9 0 5 19 28 42 50 43 43 47 54 13 40z"/>
<path d="M3200 3947 c0 -3 20 -12 45 -20 45 -16 65 -14 23 2 -43 16 -68 22
-68 18z"/>
<path d="M6990 3924 c-6 -14 -10 -29 -10 -35 0 -5 -9 -14 -20 -21 -35 -22 -22
-28 60 -28 l80 0 0 -42 c0 -37 -5 -46 -30 -63 -16 -11 -30 -23 -30 -27 0 -5
-18 -8 -40 -8 -28 0 -40 -4 -40 -14 0 -9 -7 -12 -20 -9 -11 3 -25 3 -32 0 -7
-2 -17 -4 -22 -3 -4 0 -17 -16 -27 -36 -23 -44 -17 -118 9 -118 11 0 12 -3 3
-14 -6 -8 -15 -33 -19 -57 -6 -35 -12 -45 -30 -47 -22 -3 -33 -42 -11 -42 6 0
17 -6 25 -14 17 -17 77 -24 242 -29 l122 -3 0 238 0 238 -40 0 c-39 0 -40 1
-40 35 0 27 -4 35 -18 35 -21 0 -43 22 -60 63 -15 34 -39 35 -52 1z"/>
<path d="M477 3921 c-3 -11 1 -25 9 -32 8 -6 11 -15 8 -20 -3 -5 0 -9 5 -9 6
0 11 7 11 15 0 8 5 15 11 15 6 0 9 10 7 23 -4 30 -43 36 -51 8z"/>
<path d="M5120 3930 c20 -13 40 -13 40 0 0 6 -12 10 -27 10 -22 0 -25 -2 -13
-10z"/>
<path d="M2425 3920 c-3 -5 -2 -10 4 -10 5 0 13 5 16 10 3 6 2 10 -4 10 -5 0
-13 -4 -16 -10z"/>
<path d="M945 3890 c-3 -5 -1 -10 4 -10 6 0 11 5 11 10 0 6 -2 10 -4 10 -3 0
-8 -4 -11 -10z"/>
<path d="M3344 3886 c11 -9 24 -16 30 -16 12 0 7 5 -24 19 -24 11 -24 11 -6
-3z"/>
<path d="M5276 3885 c4 -8 15 -15 27 -15 23 0 22 2 -10 19 -19 10 -22 9 -17
-4z"/>
<path d="M3430 3850 c8 -5 20 -10 25 -10 6 0 3 5 -5 10 -8 5 -19 10 -25 10 -5
0 -3 -5 5 -10z"/>
<path d="M3680 3856 c0 -3 9 -10 20 -16 11 -6 20 -8 20 -6 0 3 -9 10 -20 16
-11 6 -20 8 -20 6z"/>
<path d="M3550 3840 c8 -5 20 -10 25 -10 6 0 3 5 -5 10 -8 5 -19 10 -25 10 -5
0 -3 -5 5 -10z"/>
<path d="M4312 3760 c0 -14 2 -19 5 -12 2 6 2 18 0 25 -3 6 -5 1 -5 -13z"/>
<path d="M2023 3728 c-6 -7 -16 -24 -22 -38 -12 -24 -12 -24 4 -5 20 24 37 55
32 55 -3 0 -9 -6 -14 -12z"/>
<path d="M3367 3673 c-15 -14 -7 -43 12 -43 26 0 36 17 21 35 -14 16 -23 19
-33 8z"/>
<path d="M1975 3650 c-3 -5 -1 -10 4 -10 6 0 11 5 11 10 0 6 -2 10 -4 10 -3 0
-8 -4 -11 -10z"/>
<path d="M3850 3596 c0 -2 8 -10 18 -17 15 -13 16 -12 3 4 -13 16 -21 21 -21
13z"/>
<path d="M6664 3568 c-4 -7 -10 -62 -12 -124 l-4 -111 43 -1 c24 -1 56 4 72
11 l27 12 -20 38 c-11 21 -18 42 -16 46 9 14 -30 120 -49 133 -15 11 -33 9
-41 -4z"/>
<path d="M1941 3543 c0 -12 -5 -25 -11 -28 -5 -3 -10 -18 -9 -33 0 -24 2 -22
15 13 8 22 13 46 10 55 -2 9 -4 6 -5 -7z"/>
<path d="M2205 3520 c-3 -5 -1 -10 4 -10 6 0 11 5 11 10 0 6 -2 10 -4 10 -3 0
-8 -4 -11 -10z"/>
<path d="M4300 3482 c0 -23 5 -42 10 -42 7 0 8 14 4 38 -9 51 -14 53 -14 4z"/>
<path d="M2423 3441 c-39 -56 -41 -67 -10 -46 20 13 54 81 45 90 -1 2 -18 -18
-35 -44z"/>
<path d="M3087 3476 c-8 -20 20 -43 35 -28 14 14 3 42 -16 42 -7 0 -16 -6 -19
-14z"/>
<path d="M4355 3450 c-3 -5 -1 -10 4 -10 6 0 11 5 11 10 0 6 -2 10 -4 10 -3 0
-8 -4 -11 -10z"/>
<path d="M1520 3415 c0 -5 5 -17 10 -25 5 -8 10 -10 10 -5 0 6 -5 17 -10 25
-5 8 -10 11 -10 5z"/>
<path d="M4306 3405 c-3 -9 -6 -60 -7 -113 0 -53 -4 -134 -8 -180 -3 -46 -3
-86 1 -88 3 -2 9 -18 13 -34 17 -77 23 -11 18 198 -3 125 -7 228 -8 230 -1 2
-5 -4 -9 -13z"/>
<path d="M4366 3335 c3 -44 8 -188 10 -320 4 -219 6 -240 22 -240 14 0 17 9
15 55 -1 52 0 49 13 -27 7 -46 25 -41 20 5 -3 20 -10 82 -15 137 -34 329 -48
430 -63 455 -5 9 -6 -17 -2 -65z"/>
<path d="M4715 3391 c-12 -39 -65 -253 -65 -264 0 -6 7 -2 15 9 17 23 19 12 4
-39 -16 -58 -1 -83 17 -29 13 36 46 330 38 340 -1 2 -5 -6 -9 -17z"/>
<path d="M1641 3374 c0 -11 3 -14 6 -6 3 7 2 16 -1 19 -3 4 -6 -2 -5 -13z"/>
<path d="M2905 3350 c-3 -5 1 -10 10 -10 9 0 13 5 10 10 -3 6 -8 10 -10 10 -2
0 -7 -4 -10 -10z"/>
<path d="M2880 3320 c0 -5 12 -10 28 -10 21 0 24 2 12 10 -20 13 -40 13 -40 0z"/>
<path d="M2876 3285 c-18 -47 6 -74 35 -39 16 19 21 44 9 44 -5 0 -15 3 -23 6
-8 3 -17 -2 -21 -11z"/>
<path d="M4200 3260 c-8 -25 -15 -52 -17 -60 -1 -8 -5 -27 -9 -42 -3 -15 -3
-36 1 -45 6 -14 11 -6 21 31 7 28 10 54 7 58 -2 5 0 22 7 38 6 16 10 37 8 47
-3 12 -9 2 -18 -27z"/>
<path d="M1731 3264 c0 -11 3 -14 6 -6 3 7 2 16 -1 19 -3 4 -6 -2 -5 -13z"/>
<path d="M2131 3264 c0 -11 3 -14 6 -6 3 7 2 16 -1 19 -3 4 -6 -2 -5 -13z"/>
<path d="M1701 3215 c0 -5 4 -19 9 -30 l9 -20 0 20 c1 17 3 17 11 5 5 -8 10
-10 10 -5 0 6 -5 17 -10 25 -9 13 -10 13 -10 0 0 -13 -1 -13 -10 0 -5 8 -9 11
-9 5z"/>
<path d="M2116 3182 c-5 -18 -5 -36 -2 -39 7 -7 19 43 13 59 -2 7 -7 -2 -11
-20z"/>
<path d="M3274 3185 c-7 -18 3 -35 21 -35 18 0 26 15 19 34 -8 20 -33 21 -40
1z"/>
<path d="M6674 3080 c6 -89 24 -227 32 -252 3 -10 11 -18 19 -18 7 0 60 -15
117 -34 137 -45 167 -50 175 -30 3 8 11 13 19 10 7 -3 18 2 25 10 21 26 51 38
59 24 4 -6 23 -15 44 -20 l36 -8 0 40 c0 39 -1 40 -27 33 -63 -16 -79 -16 -96
3 -14 15 -16 30 -10 82 7 74 21 91 86 111 41 12 47 17 47 41 0 26 -2 28 -45
28 -24 0 -66 5 -92 10 -69 15 -363 27 -363 16 0 -6 -7 -1 -16 10 -14 17 -15
13 -10 -56z"/>
<path d="M3450 3130 c-1 -8 -2 -23 -1 -32 1 -10 -3 -18 -8 -18 -13 0 -14 -10
-1 -30 18 -28 30 2 21 50 -5 25 -10 38 -11 30z"/>
<path d="M2120 3111 c0 -7 -4 -10 -9 -7 -4 3 -11 -18 -15 -47 -9 -78 -7 -207
3 -207 5 0 7 -9 4 -20 -3 -11 -2 -37 3 -57 l8 -38 6 50 c3 28 2 55 -2 61 -4 5
-7 39 -7 75 0 35 0 80 0 99 -1 19 4 48 11 63 6 15 8 30 4 34 -3 3 -6 1 -6 -6z"/>
<path d="M5457 3070 c-8 -67 -9 -105 -1 -97 6 6 32 -13 65 -47 10 -11 22 -16
26 -13 3 4 1 7 -5 7 -7 0 -12 6 -12 14 0 9 17 16 50 20 27 4 56 13 64 21 17
17 42 20 51 5 3 -5 13 -10 21 -10 9 0 12 5 8 11 -3 6 5 4 19 -5 16 -11 34 -15
51 -10 16 4 32 1 42 -7 9 -8 37 -12 70 -10 32 1 61 -3 70 -10 8 -6 36 -14 62
-15 26 -2 57 -6 70 -9 12 -3 22 -1 22 5 0 5 -9 10 -20 10 -10 0 -29 4 -42 9
-13 5 -54 16 -93 25 -187 41 -332 50 -360 22 -17 -16 -37 -18 -36 -3 2 17 -42
47 -72 50 -30 2 -32 5 -37 47 l-5 45 -8 -55z m77 -69 c15 -1 -3 -15 -24 -18
-12 -2 -20 3 -20 11 0 8 8 13 18 11 9 -2 21 -4 26 -4z m26 -35 c0 -9 -40 -13
-46 -5 -3 5 6 9 20 9 14 0 26 -2 26 -4z"/>
<path d="M6055 3098 c4 -21 1 -28 -10 -28 -12 0 -15 6 -10 20 4 14 2 20 -8 20
-22 0 -25 -9 -13 -35 12 -28 26 -31 44 -13 10 10 15 10 22 -2 5 -8 6 -18 4
-22 -3 -4 3 -8 13 -8 11 0 24 -5 31 -12 9 -9 15 -9 24 0 9 9 7 12 -10 12 -15
0 -20 5 -16 15 4 10 0 15 -13 15 -18 0 -44 23 -57 51 -3 8 -4 2 -1 -13z"/>
<path d="M3480 3101 c0 -5 5 -13 10 -16 6 -3 10 -2 10 4 0 5 -4 13 -10 16 -5
3 -10 2 -10 -4z"/>
<path d="M5510 3100 c0 -5 5 -10 11 -10 5 0 7 5 4 10 -3 6 -8 10 -11 10 -2 0
-4 -4 -4 -10z"/>
<path d="M5760 3099 c0 -5 5 -7 10 -4 6 3 10 8 10 11 0 2 -4 4 -10 4 -5 0 -10
-5 -10 -11z"/>
<path d="M5880 3100 c0 -5 5 -10 10 -10 6 0 10 5 10 10 0 6 -4 10 -10 10 -5 0
-10 -4 -10 -10z"/>
<path d="M5950 3091 c0 -12 5 -21 10 -21 6 0 10 6 10 14 0 8 -4 18 -10 21 -5
3 -10 -3 -10 -14z"/>
<path d="M6180 3100 c20 -13 33 -13 25 0 -3 6 -14 10 -23 10 -15 0 -15 -2 -2
-10z"/>
<path d="M1581 3074 c0 -11 3 -14 6 -6 3 7 2 16 -1 19 -3 4 -6 -2 -5 -13z"/>
<path d="M6170 3040 c0 -5 7 -10 16 -10 8 0 12 5 9 10 -3 6 -10 10 -16 10 -5
0 -9 -4 -9 -10z"/>
<path d="M4882 3020 c0 -14 2 -19 5 -12 2 6 2 18 0 25 -3 6 -5 1 -5 -13z"/>
<path d="M3900 3023 c-100 -18 -202 -50 -272 -85 -106 -53 -237 -148 -238
-170 0 -10 230 -10 405 -1 99 5 123 9 102 16 -30 10 -33 21 -12 57 16 28 21 9
5 -21 -8 -15 -7 -19 4 -19 8 0 18 9 21 21 6 18 12 20 40 15 19 -4 36 -2 40 4
3 5 9 10 13 10 9 0 32 -49 32 -67 0 -7 5 -13 10 -13 6 0 13 -1 17 -2 5 -2 8 6
8 17 0 11 6 19 13 18 6 -2 12 4 12 12 0 8 5 15 10 15 15 0 12 -17 -7 -46 -14
-22 -14 -27 -3 -34 20 -12 40 7 41 39 0 14 4 34 7 44 7 16 10 15 33 -10 65
-73 63 -67 28 -102 l-32 -32 29 -18 c16 -10 35 -25 43 -34 18 -22 81 -61 87
-54 6 5 -8 56 -29 107 -5 14 -15 77 -22 141 -14 138 -29 162 -117 183 -24 5
-28 3 -29 -16 -1 -22 -1 -22 -8 2 -7 24 -9 25 -106 26 -55 1 -111 0 -125 -3z"/>
<path d="M6050 3019 c0 -5 5 -7 10 -4 6 3 10 8 10 11 0 2 -4 4 -10 4 -5 0 -10
-5 -10 -11z"/>
<path d="M6205 3019 c-10 -14 -1 -21 19 -13 9 3 13 10 10 15 -7 12 -21 11 -29
-2z"/>
<path d="M2997 3013 c-13 -12 -7 -41 10 -47 9 -4 23 -1 30 7 8 7 11 21 7 30
-6 17 -35 23 -47 10z"/>
<path d="M1562 2980 c0 -14 2 -19 5 -12 2 6 2 18 0 25 -3 6 -5 1 -5 -13z"/>
<path d="M4865 2981 c-3 -5 -1 -12 5 -16 5 -3 10 1 10 9 0 18 -6 21 -15 7z"/>
<path d="M1616 2965 c-9 -26 -7 -32 5 -12 6 10 9 21 6 23 -2 3 -7 -2 -11 -11z"/>
<path d="M1637 2966 c-4 -10 -5 -21 -2 -24 9 -9 17 6 13 25 -3 17 -4 17 -11
-1z"/>
<path d="M5180 2950 c0 -5 5 -10 10 -10 6 0 10 5 10 10 0 6 -4 10 -10 10 -5 0
-10 -4 -10 -10z"/>
<path d="M4846 2932 c-3 -5 -10 -26 -15 -48 -5 -21 -15 -57 -20 -79 -21 -79
-9 -90 16 -15 34 102 42 139 33 145 -5 3 -11 1 -14 -3z"/>
<path d="M6128 2893 c7 -3 16 -2 19 1 4 3 -2 6 -13 5 -11 0 -14 -3 -6 -6z"/>
<path d="M2750 2876 c0 -2 7 -9 15 -16 13 -11 14 -10 9 4 -5 14 -24 23 -24 12z"/>
<path d="M1562 2825 c0 -16 2 -22 5 -12 2 9 2 23 0 30 -3 6 -5 -1 -5 -18z"/>
<path d="M1582 2820 c0 -14 2 -19 5 -12 2 6 2 18 0 25 -3 6 -5 1 -5 -13z"/>
<path d="M1872 2780 c0 -14 2 -19 5 -12 2 6 2 18 0 25 -3 6 -5 1 -5 -13z"/>
<path d="M2132 2760 c0 -14 2 -19 5 -12 2 6 2 18 0 25 -3 6 -5 1 -5 -13z"/>
<path d="M2041 2714 c0 -11 3 -14 6 -6 3 7 2 16 -1 19 -3 4 -6 -2 -5 -13z"/>
<path d="M2560 2673 c0 -14 34 -43 49 -43 9 0 9 3 -1 13 -29 27 -48 39 -48 30z"/>
<path d="M1869 2525 c-6 -40 -4 -53 7 -43 3 3 4 23 2 44 l-3 39 -6 -40z"/>
<path d="M6155 2541 c-3 -5 -1 -12 5 -16 5 -3 10 1 10 9 0 18 -6 21 -15 7z"/>
<path d="M2400 2490 c0 -5 14 -10 30 -10 17 0 30 -5 30 -11 0 -6 7 -9 15 -5 9
3 15 0 15 -9 0 -10 10 -15 30 -15 45 0 37 24 -13 44 -48 18 -107 21 -107 6z"/>
<path d="M6200 2475 c14 -8 21 -15 15 -15 -5 -1 1 -6 14 -11 13 -5 26 -7 29
-4 9 8 -42 44 -63 44 -18 0 -17 -1 5 -14z"/>
<path d="M5420 2471 c0 -10 97 -19 112 -10 11 7 -41 19 -83 19 -16 0 -29 -4
-29 -9z"/>
<path d="M5748 2473 c6 -2 18 -2 25 0 6 3 1 5 -13 5 -14 0 -19 -2 -12 -5z"/>
<path d="M6150 2460 c-13 -8 -12 -10 3 -10 9 0 17 5 17 10 0 12 -1 12 -20 0z"/>
<path d="M5568 2448 c8 -8 17 -8 34 0 22 10 21 11 -11 11 -27 1 -32 -2 -23
-11z"/>
<path d="M5635 2450 c-3 -5 1 -10 10 -10 9 0 13 5 10 10 -3 6 -8 10 -10 10 -2
0 -7 -4 -10 -10z"/>
<path d="M2180 2440 c-16 -5 -19 -8 -8 -9 9 -1 21 -7 25 -15 8 -14 45 -22 138
-33 28 -3 55 -9 60 -13 14 -11 126 -3 138 9 15 15 17 41 4 42 -7 0 -75 2 -152
5 -77 3 -141 10 -143 15 -4 11 -27 10 -62 -1z"/>
<path d="M6260 2420 c0 -5 5 -10 11 -10 5 0 7 5 4 10 -3 6 -8 10 -11 10 -2 0
-4 -4 -4 -10z"/>
<path d="M6300 2360 c0 -5 6 -10 14 -10 8 0 21 -9 28 -19 8 -11 27 -25 43 -32
17 -7 38 -19 47 -27 9 -8 22 -12 28 -10 10 3 -140 108 -154 108 -3 0 -6 -4 -6
-10z"/>
<path d="M6513 2223 c9 -9 20 -13 24 -9 4 4 1 11 -7 16 -25 16 -35 11 -17 -7z"/>
<path d="M6558 2203 c7 -3 16 -2 19 1 4 3 -2 6 -13 5 -11 0 -14 -3 -6 -6z"/>
<path d="M2173 2113 c-7 -2 -13 -11 -13 -20 0 -21 44 -13 48 10 3 17 -10 21
-35 10z"/>
<path d="M4890 2103 c-14 -2 -39 -6 -57 -8 -30 -5 -36 -17 -20 -42 5 -7 5 -18
1 -25 -10 -16 58 -2 71 15 6 7 25 22 43 32 52 31 39 40 -38 28z"/>
<path d="M1766 2083 c-6 -14 -5 -15 5 -6 7 7 10 15 7 18 -3 3 -9 -2 -12 -12z"/>
<path d="M4623 2093 c-33 -6 -28 -19 9 -27 40 -8 27 -21 -18 -17 -18 1 -34 -1
-34 -6 0 -5 -96 -9 -212 -9 -121 0 -187 2 -153 6 l60 7 -60 3 c-33 2 -93 5
-134 6 -46 1 -76 6 -81 14 -6 10 -40 11 -146 6 -192 -9 -278 -18 -265 -26 7
-3 9 -13 6 -22 -5 -13 13 -16 127 -22 73 -4 201 -7 283 -6 83 0 259 -2 392 -4
133 -2 254 -1 269 2 24 4 26 8 20 43 -4 25 -2 39 4 39 6 0 8 5 5 10 -6 10 -31
11 -72 3z"/>
<path d="M1368 2083 c7 -3 16 -2 19 1 4 3 -2 6 -13 5 -11 0 -14 -3 -6 -6z"/>
<path d="M2115 2004 c-20 -31 -8 -50 25 -39 16 5 20 13 18 33 -4 35 -22 38
-43 6z"/>
<path d="M2532 1993 c9 -2 19 -12 21 -21 3 -12 5 -10 6 6 1 17 -4 22 -21 21
-16 -1 -18 -3 -6 -6z"/>
<path d="M4658 1942 c-15 -9 -37 -29 -48 -44 -12 -16 -27 -28 -34 -28 -8 0
-13 -18 -14 -55 -1 -43 2 -55 14 -55 8 0 26 -7 39 -16 23 -15 25 -15 25 0 0
11 9 16 29 16 24 0 29 5 35 31 11 59 3 170 -13 168 -3 0 -18 -8 -33 -17z"/>
<path d="M1505 1940 c3 -5 8 -10 11 -10 2 0 4 5 4 10 0 6 -5 10 -11 10 -5 0
-7 -4 -4 -10z"/>
<path d="M2344 1920 c-53 -30 -94 -72 -94 -96 0 -19 3 -18 45 10 20 14 58 32
86 41 61 21 79 47 43 64 -31 14 -20 16 -80 -19z"/>
<path d="M779 1913 c-6 -16 -6 -36 -1 -52 7 -20 4 -32 -11 -53 -11 -15 -22
-49 -25 -77 -2 -28 -10 -51 -16 -51 -6 0 16 -14 49 -31 57 -29 63 -30 165 -26
62 3 97 1 85 -4 -12 -5 -5 -6 20 -2 58 11 260 5 260 -7 0 -1 10 -3 23 -4 12
-2 22 1 22 6 0 14 47 9 60 -7 10 -12 10 -15 -2 -15 -25 0 -77 -30 -88 -51 -6
-10 -17 -19 -25 -19 -8 0 -15 -9 -15 -20 0 -12 -12 -32 -27 -45 -24 -21 -26
-26 -13 -35 22 -14 34 -12 61 11 13 12 42 33 64 47 22 13 63 40 90 58 86 56
127 57 160 2 10 -18 48 -73 84 -123 91 -124 101 -141 101 -170 0 -42 -34 -97
-98 -159 -33 -31 -72 -83 -88 -113 -33 -66 -113 -152 -169 -181 -22 -12 -55
-34 -72 -50 -18 -16 -88 -58 -156 -92 l-124 -63 -36 21 c-20 13 -38 34 -42 50
-12 47 -22 46 -161 -19 -22 -10 -50 -19 -62 -19 -25 0 -52 35 -52 67 0 17 -6
23 -22 23 -13 1 -45 3 -72 5 -46 4 -48 4 -42 -19 7 -27 -16 -51 -55 -58 -48
-9 -67 58 -27 90 40 31 218 213 218 222 0 13 -8 13 -23 0 -56 -47 -283 -200
-296 -200 -4 0 -26 -17 -48 -38 -44 -42 -70 -47 -102 -18 -17 16 -31 17 -105
11 -47 -4 -83 -11 -81 -16 3 -4 -15 -11 -40 -14 l-45 -7 0 -334 0 -334 3600 0
3600 0 0 309 0 309 -76 7 c-54 5 -79 4 -84 -4 -5 -9 -10 -8 -18 2 -9 10 -8 18
3 33 8 10 15 14 15 9 0 -6 17 -9 40 -7 25 3 40 0 40 -7 0 -6 18 -11 41 -11 38
0 40 1 37 28 -3 23 -8 27 -40 30 -21 2 -38 8 -38 14 0 7 -22 9 -65 6 -36 -3
-65 -2 -65 2 0 4 -21 11 -46 15 -25 3 -64 13 -87 22 -39 14 -87 22 -237 39
-30 4 -57 10 -60 14 -6 9 -149 38 -220 45 -88 9 -193 26 -215 36 -44 19 -185
47 -265 54 -47 3 -115 12 -151 19 -38 7 -76 9 -88 4 -19 -6 -21 -5 -17 10 4
12 1 18 -12 19 -84 5 -124 17 -134 39 -11 23 -11 23 -28 4 -21 -25 -37 -25
-63 -2 -13 10 -17 11 -12 3 6 -11 4 -13 -11 -6 -10 4 -27 7 -36 7 -10 0 -18 3
-18 7 0 4 -19 8 -42 10 -23 1 -69 9 -102 17 -34 9 -81 19 -106 23 -25 4 -52
11 -60 16 -8 5 -26 8 -40 6 -21 -3 -22 -1 -11 13 7 8 16 30 20 48 5 18 11 44
16 57 6 20 5 22 -6 12 -8 -6 -40 -32 -71 -57 -59 -47 -66 -58 -47 -69 5 -4 8
-12 6 -18 -6 -18 -287 -18 -287 0 0 7 -9 13 -20 13 -17 0 -20 7 -20 41 l0 42
-97 -7 c-66 -5 -100 -11 -107 -21 -14 -19 -76 -32 -76 -16 0 7 -5 9 -10 6 -7
-4 -7 -13 0 -26 7 -13 7 -19 0 -19 -5 0 -10 -22 -10 -51 0 -91 -24 -113 -160
-148 -60 -16 -68 -19 -40 -20 l35 -1 -34 -17 c-19 -10 -46 -27 -59 -40 -27
-25 -52 -29 -83 -12 -16 8 -20 19 -17 47 3 35 1 37 -37 45 -110 24 -143 39
-159 72 -9 19 -16 59 -16 93 0 64 -6 74 -49 78 -50 6 -65 62 -35 123 9 18 27
36 40 41 37 14 39 36 10 78 -27 39 -34 95 -18 130 34 68 51 111 55 134 4 24 1
27 -17 23 -69 -15 -146 -25 -192 -25 -29 0 -55 -4 -58 -9 -9 -14 47 -34 99
-33 l50 0 -40 -8 -40 -7 35 -3 35 -2 -45 -12 c-25 -6 -59 -22 -75 -34 -25 -20
-37 -23 -74 -18 l-44 6 7 -207 c3 -115 6 -297 7 -405 l0 -198 99 0 c56 0 124
7 157 15 74 19 83 19 83 -4 0 -25 -51 -68 -98 -81 -20 -5 -85 -10 -144 -10
-91 0 -115 4 -161 24 -95 42 -93 37 -102 338 -17 618 -18 643 -38 663 -16 15
-20 16 -28 4 -5 -8 -9 -22 -9 -31 0 -10 -4 -18 -10 -18 -5 0 -10 -14 -10 -31
0 -22 -9 -38 -31 -56 -19 -16 -26 -29 -19 -33 7 -4 3 -13 -10 -25 -20 -18 -20
-18 -20 5 0 24 0 24 -32 -7 -18 -17 -38 -29 -44 -26 -6 2 -17 -3 -24 -12 -7
-8 -23 -15 -36 -15 -12 0 -25 -4 -28 -8 -3 -5 -39 -17 -80 -27 -70 -18 -76
-21 -76 -45 0 -19 11 -32 50 -54 27 -17 48 -32 45 -34 -2 -2 7 -16 21 -30 26
-28 30 -42 14 -42 -5 0 -10 -18 -10 -39 0 -52 -8 -71 -31 -71 -11 0 -24 -11
-31 -25 -26 -58 -75 -8 -92 95 -1 8 -8 25 -14 37 -7 12 -12 29 -12 37 0 9 -3
16 -7 16 -16 1 -149 19 -164 22 -10 2 -23 9 -31 16 -15 12 -40 14 -150 12 -53
0 -68 -4 -68 -15 0 -8 -7 -15 -15 -15 -9 0 -19 -10 -24 -23 -11 -28 -43 -44
-103 -51 -55 -6 -73 9 -81 69 -16 131 -54 245 -110 332 -49 74 -86 113 -132
137 -30 16 -30 16 -6 23 20 5 23 10 18 44 -3 21 -12 48 -21 60 l-15 22 -10
-26 c-9 -22 -17 -27 -45 -27 -19 0 -44 -9 -57 -20 l-24 -19 28 -1 c17 0 27 -5
27 -15 0 -18 -5 -19 -30 -3 -15 10 -24 9 -46 -2 -26 -14 -26 -15 -6 -18 12 -2
22 -10 22 -18 0 -20 -45 -64 -64 -64 -9 0 -19 -12 -22 -26 -4 -14 -9 -22 -13
-17 -8 13 -44 22 -116 30 -33 3 -71 9 -85 13 -23 7 -22 8 15 15 22 4 46 12 53
18 8 6 16 7 22 1 7 -7 38 -1 88 15 78 26 79 42 0 20 -63 -18 -80 -20 -73 -10
3 5 19 12 35 16 16 4 32 10 35 15 5 8 -37 -4 -140 -41 -93 -34 -245 -64 -190
-38 20 9 -21 6 -87 -7 -17 -3 -29 -1 -29 5 -2 15 -4 22 -14 46 -4 11 -14 36
-22 55 -20 49 -43 73 -59 59 -29 -24 -79 31 -68 76 8 33 -4 32 -17 -2z m936
-238 c14 -14 25 -35 25 -46 0 -11 11 -36 24 -57 12 -20 26 -48 31 -62 4 -14
24 -49 44 -79 57 -85 71 -110 62 -115 -13 -8 -71 39 -99 81 -14 21 -29 40 -34
41 -4 2 -8 8 -8 12 0 5 -25 46 -55 90 -58 86 -70 131 -37 149 9 6 18 11 19 11
1 0 14 -11 28 -25z m-942 -2 c-7 -2 -19 -2 -25 0 -7 3 -2 5 12 5 14 0 19 -2
13 -5z m2830 -13 c-3 -11 -7 -20 -9 -20 -2 0 -4 9 -4 20 0 11 4 20 9 20 5 0 7
-9 4 -20z m-187 -230 c12 0 34 -73 34 -113 0 -14 -7 -37 -15 -53 -10 -20 -11
-30 -3 -35 6 -4 7 -12 4 -18 -4 -6 -2 -11 4 -11 13 0 2 -53 -13 -59 -5 -2 -3
-8 4 -13 11 -7 11 -11 2 -15 -7 -2 -13 -11 -13 -19 0 -10 -12 -14 -40 -14
l-40 0 0 88 c0 48 4 94 10 102 5 9 5 19 -2 27 -5 7 -11 34 -12 60 -2 55 17 85
49 78 11 -3 25 -5 31 -5z m-1049 -346 c-3 -3 -12 -4 -19 -1 -8 3 -5 6 6 6 11
1 17 -2 13 -5z m287 -73 c-10 -10 -22 -17 -26 -14 -11 6 14 32 31 33 11 0 9
-5 -5 -19z m782 -21 c-3 -11 -9 -29 -12 -40 -3 -11 -1 -20 5 -20 5 0 10 -21
11 -47 0 -27 1 -59 3 -73 1 -19 -3 -26 -21 -28 -12 -2 -20 -8 -17 -13 4 -5 -3
-9 -15 -9 -23 0 -53 24 -43 33 3 4 6 50 6 104 0 54 2 101 4 106 2 4 22 7 44 7
36 0 40 -2 35 -20z m1584 -104 c0 -11 -19 -15 -25 -6 -3 5 1 10 9 10 9 0 16
-2 16 -4z m-3354 -51 c15 -24 15 -28 -6 -78 -12 -28 -31 -60 -43 -70 -22 -19
-42 -50 -53 -79 -7 -21 -32 -24 -40 -5 -9 24 -10 162 -2 180 5 9 16 17 24 17
8 0 13 4 10 8 -3 5 8 23 24 41 25 27 33 30 50 21 11 -6 27 -22 36 -35z m4080
24 c3 -6 -1 -18 -10 -27 -15 -15 -17 -15 -32 0 -19 19 -11 38 16 38 10 0 22
-5 26 -11z m-3605 -99 c13 -40 14 -53 4 -67 -14 -18 -45 -12 -45 10 0 10 -13
13 -56 9 -41 -3 -55 -2 -50 7 4 6 3 11 -2 11 -6 0 -13 8 -16 17 -5 11 4 26 24
45 30 27 42 32 68 29 6 -1 12 3 12 9 0 28 46 -25 61 -70z m1939 17 c0 -18 -6
-41 -13 -51 -18 -24 -82 -26 -99 -3 -7 9 -28 19 -46 21 -40 4 -46 9 -37 35 6
21 29 25 143 29 l52 2 0 -33z m114 -63 c9 -22 -46 -74 -78 -74 -14 0 -26 -4
-26 -8 0 -11 -12 -12 -131 -12 -100 -1 -223 21 -255 45 -11 8 -14 15 -7 15 7
0 10 7 6 16 -5 12 -2 15 13 11 80 -24 126 -29 237 -25 95 4 132 9 167 26 56
25 66 26 74 6z m-664 -104 c8 -5 11 -12 7 -16 -4 -4 -15 0 -24 9 -18 18 -8 23
17 7z m-2410 -65 c0 -21 -5 -25 -29 -25 -62 0 -45 39 22 49 4 0 7 -10 7 -24z
m4082 -142 c-4 -39 -7 -43 -31 -42 -40 2 -74 13 -79 27 -2 7 6 12 21 12 14 0
27 7 31 15 3 8 17 15 31 15 14 0 25 5 25 12 0 6 2 9 3 7 2 -2 2 -23 -1 -46z
m-4092 22 c0 -12 -14 -15 -72 -13 -41 1 -56 3 -35 5 20 2 37 8 37 14 0 5 16 9
35 9 24 0 35 -5 35 -15z m-10 -34 c0 -5 -12 -19 -27 -31 -21 -16 -29 -18 -32
-8 -2 7 -10 17 -17 21 -27 16 -13 27 31 27 25 0 45 -4 45 -9z m2980 -41 c0 -5
16 -10 36 -10 55 0 80 -35 50 -69 -8 -9 -24 -41 -37 -71 -13 -30 -28 -58 -33
-62 -17 -12 -109 -9 -135 5 -21 10 -46 42 -67 85 -7 14 32 62 49 62 6 0 19 8
29 17 14 13 21 14 27 5 10 -17 61 8 61 31 0 9 5 17 10 17 6 0 10 -4 10 -10z
m-100 -9 c0 -17 -18 -21 -24 -6 -3 9 0 15 9 15 8 0 15 -4 15 -9z"/>
<path d="M2200 1870 c0 -46 11 -63 25 -41 8 14 -6 91 -16 91 -5 0 -9 -22 -9
-50z"/>
<path d="M3178 1913 c7 -3 16 -2 19 1 4 3 -2 6 -13 5 -11 0 -14 -3 -6 -6z"/>
<path d="M1720 1866 c0 -13 3 -38 6 -55 6 -27 11 -32 33 -29 21 2 26 8 25 28
-1 14 4 28 10 32 7 5 4 12 -9 22 -11 8 -23 12 -27 10 -4 -2 -9 0 -13 6 -11 18
-25 11 -25 -14z"/>
<path d="M1833 1843 c-12 -40 -8 -58 7 -33 5 8 20 15 32 15 18 0 23 6 23 25 0
19 -6 26 -25 28 -21 2 -27 -3 -37 -35z"/>
<path d="M631 1846 c-7 -8 -8 -17 -3 -20 15 -9 52 5 52 20 0 18 -34 18 -49 0z"/>
<path d="M2410 1787 c-29 -14 -32 -35 -9 -50 26 -16 49 -1 49 33 0 33 -4 35
-40 17z"/>
<path d="M2480 1770 c0 -5 5 -10 11 -10 5 0 7 5 4 10 -3 6 -8 10 -11 10 -2 0
-4 -4 -4 -10z"/>
<path d="M2160 1743 c-31 -6 -44 -18 -36 -32 8 -13 66 13 66 29 0 6 -1 9 -2 9
-2 -1 -14 -4 -28 -6z"/>
<path d="M205 1693 c-11 -10 -20 -25 -21 -33 -1 -8 -4 -25 -8 -37 -6 -20 -4
-23 19 -23 25 0 27 2 22 40 -2 22 0 41 6 43 5 1 8 9 6 16 -3 9 -10 7 -24 -6z"/>
<path d="M240 1662 c0 -5 14 -9 30 -9 17 0 30 4 30 9 0 4 -13 8 -30 8 -16 0
-30 -4 -30 -8z"/>
<path d="M3290 1660 c0 -5 6 -10 14 -10 8 0 18 5 21 10 3 6 -3 10 -14 10 -12
0 -21 -4 -21 -10z"/>
<path d="M702 1628 c3 -7 17 -14 32 -16 20 -3 27 0 24 10 -3 7 -17 14 -32 16
-20 3 -27 0 -24 -10z"/>
<path d="M1920 1621 c0 -5 7 -11 15 -15 9 -3 15 0 15 9 0 8 -7 15 -15 15 -8 0
-15 -4 -15 -9z"/>
<path d="M248 1543 c7 -3 16 -2 19 1 4 3 -2 6 -13 5 -11 0 -14 -3 -6 -6z"/>
<path d="M1135 1540 c-4 -6 8 -10 29 -10 20 0 36 5 36 10 0 6 -13 10 -29 10
-17 0 -33 -4 -36 -10z"/>
<path d="M2340 1543 c-14 -2 -45 -10 -70 -18 -25 -8 -58 -15 -74 -17 -16 -2
-31 -9 -34 -16 -2 -7 2 -13 9 -11 8 1 31 1 52 0 55 -1 42 -24 -14 -25 -52 -1
-60 -23 -16 -44 15 -7 27 -18 27 -24 0 -5 7 -7 16 -4 12 4 15 2 10 -9 -4 -10
1 -15 17 -16 12 -1 40 -3 62 -4 91 -6 147 -15 179 -30 32 -15 36 -15 60 1 27
17 28 41 3 72 -5 7 -9 35 -8 62 1 61 -12 70 -91 61 -61 -7 -80 -17 -59 -30 15
-10 -18 -21 -61 -21 -38 0 -35 19 3 27 17 3 33 12 36 19 3 7 12 10 21 6 15 -5
15 -4 3 11 -13 17 -23 18 -71 10z"/>
<path d="M817 1494 c-14 -14 -6 -24 19 -24 16 0 24 5 22 13 -5 14 -31 21 -41
11z"/>
<path d="M77 1354 c6 -16 19 -18 27 -5 3 5 -3 11 -13 14 -14 3 -18 1 -14 -9z"/>
<path d="M2160 1352 c0 -25 19 -42 47 -42 28 0 29 3 1 35 -25 29 -48 33 -48 7z"/>
<path d="M190 1349 c0 -5 5 -7 10 -4 6 3 10 8 10 11 0 2 -4 4 -10 4 -5 0 -10
-5 -10 -11z"/>
<path d="M3672 1296 l1 -42 38 10 c31 8 36 13 28 27 -5 10 -22 24 -39 33 l-30
15 2 -43z"/>
<path d="M0 1239 c0 -18 2 -19 15 -9 8 7 15 16 15 21 0 5 -7 9 -15 9 -9 0 -15
-9 -15 -21z"/>
<path d="M4240 1220 c0 -11 6 -17 17 -16 25 4 27 23 3 29 -15 4 -20 0 -20 -13z"/>
<path d="M3 1080 c0 -25 2 -35 4 -22 2 12 2 32 0 45 -2 12 -4 2 -4 -23z"/>
<path d="M396 1051 c-4 -5 -2 -12 3 -15 5 -4 12 -2 15 3 4 5 2 12 -3 15 -5 4
-12 2 -15 -3z"/>
<path d="M0 924 c0 -21 4 -25 23 -22 14 2 23 11 25 26 3 18 -1 22 -22 22 -21
0 -26 -5 -26 -26z"/>
</g>
</svg>
